<?xml version="1.0" encoding="utf-8"?>
<!-- Generator: Adobe Illustrator 27.5.0, SVG Export Plug-In . SVG Version: 6.00 Build 0)  -->
<svg version="1.1" xmlns="http://www.w3.org/2000/svg" xmlns:xlink="http://www.w3.org/1999/xlink" x="0px" y="0px"
	 viewBox="0 0 500 500" style="enable-background:new 0 0 500 500;" xml:space="preserve">
<g id="BACKGROUND">
	<rect style="fill:#FFFFFF;" width="500" height="500"/>
</g>
<g id="OBJECTS">
	<g>
		<path style="fill:#353C73;" d="M292.529,238.5c5.5-8,8.5-18,10.5-27.5c2-10,0.5-16-4.5-24.5c-5-7-15-12.5-17.5-20.5
			c-3-10.5,0-17-10-25c-6-5-13-8-21-8H250c-8,0-15,3-21,8c-10,8-7,14.5-10,25c-2.5,8-12.5,13.5-17.5,20.5c-5,8.5-6.5,14.5-4.5,24.5
			c2,9.5,5,19.5,10.5,27.5H292.529z"/>
		<path style="fill:#2A4F9A;" d="M293.555,217.982c-8.486-15.928-25.037-21.628-44.063-21.628c-18.439,0-34.553,6.892-43.254,21.721
			L293.555,217.982z"/>
		<path style="fill:#EF8B7B;" d="M256.56,184.293c0,0-3.25,13.083,6.969,17.581c0,0-2.787,6.541-13.935,6.541h0.603
			c-11.148,0-13.934-6.541-13.934-6.541c10.218-4.497,6.968-17.581,6.968-17.581H256.56z"/>
		<path style="fill:#EF8B7B;" d="M271.813,160.273c0,15.196-9.815,27.513-21.917,27.513c-12.106,0-21.918-12.317-21.918-27.513
			c0-15.196,9.811-27.513,21.918-27.513C261.998,132.76,271.813,145.077,271.813,160.273z"/>
	</g>
	<path style="fill:#C6D8ED;" d="M470.357,69.01h-2.505c0.624-1.585,0.979-3.306,0.979-5.112c0-7.725-6.263-13.987-13.988-13.987
		c-2.541,0-4.917,0.688-6.971,1.873c-1.209-12.008-11.345-21.381-23.671-21.381c-13.14,0-23.792,10.652-23.792,23.792
		c0,0.002,0,0.005,0,0.007c-0.047,0-0.093-0.007-0.141-0.007c-7.317,0-13.251,5.933-13.251,13.251c0,0.53,0.039,1.05,0.101,1.564
		h-3.444c-3.812,0-6.898,3.43-6.898,7.66c0,4.231,3.087,7.661,6.898,7.661h86.684c3.811,0,6.898-3.43,6.898-7.661
		C477.256,72.44,474.168,69.01,470.357,69.01z"/>
	<path style="fill:#C6D8ED;" d="M405.585,213.657h3.561c-0.601-1.741-0.943-3.603-0.943-5.548c0-9.392,7.613-17.006,17.006-17.006
		c6.018,0,11.294,3.13,14.315,7.846c1.038-0.654,2.263-1.038,3.581-1.038c2.661,0,4.956,1.548,6.051,3.789
		c0.973-0.248,1.989-0.379,3.039-0.379c6.814,0,12.337,5.523,12.337,12.336h2.617c4.309,0,7.801,3.493,7.801,7.802
		c0,4.309-3.492,7.802-7.801,7.802h-61.564c-4.309,0-7.801-3.493-7.801-7.802C397.784,217.15,401.276,213.657,405.585,213.657z"/>
	<path style="fill:#C6D8ED;" d="M111.58,53.445h-4.184c0.706-2.045,1.109-4.233,1.109-6.519c0-11.035-8.946-19.982-19.981-19.982
		c-7.07,0-13.27,3.678-16.82,9.219c-1.22-0.768-2.659-1.219-4.207-1.219c-3.128,0-5.824,1.818-7.11,4.451
		c-1.142-0.291-2.338-0.446-3.571-0.446c-8.005,0-14.495,6.49-14.495,14.495h-3.075c-5.063,0-9.167,4.104-9.167,9.167
		c0,5.062,4.104,9.167,9.167,9.167h72.333c5.063,0,9.167-4.104,9.167-9.167C120.747,57.549,116.643,53.445,111.58,53.445z"/>
	<g>
		<g>
			<path style="fill:#5686C4;" d="M410.429,78.25V66.395c0-1.65-1.35-3-3-3H260.074c-1.65,0-3,1.35-3,3V78.25H410.429z"/>
			<path style="fill:#B7C1DA;" d="M257.074,79.25v87.312c0,1.65,1.35,3,3,3h147.354c1.65,0,3-1.35,3-3V79.25H257.074z"/>
		</g>
		<line style="fill:none;stroke:#353C73;stroke-miterlimit:10;" x1="298.858" y1="86.788" x2="298.858" y2="162.364"/>
		<g>
			<line style="fill:none;stroke:#353C73;stroke-miterlimit:10;" x1="382.083" y1="97.585" x2="399.178" y2="97.585"/>
			<line style="fill:none;stroke:#353C73;stroke-miterlimit:10;" x1="306.103" y1="97.585" x2="377.584" y2="97.585"/>
			<line style="fill:none;stroke:#353C73;stroke-miterlimit:10;" x1="369.037" y1="115.579" x2="399.178" y2="115.579"/>
			<line style="fill:none;stroke:#353C73;stroke-miterlimit:10;" x1="344.295" y1="115.579" x2="363.188" y2="115.579"/>
			<line style="fill:none;stroke:#353C73;stroke-miterlimit:10;" x1="306.103" y1="115.579" x2="338.896" y2="115.579"/>
			<line style="fill:none;stroke:#353C73;stroke-miterlimit:10;" x1="373.086" y1="133.573" x2="399.178" y2="133.573"/>
			<line style="fill:none;stroke:#353C73;stroke-miterlimit:10;" x1="306.103" y1="133.573" x2="366.338" y2="133.573"/>
			<line style="fill:none;stroke:#353C73;stroke-miterlimit:10;" x1="353.741" y1="151.567" x2="399.178" y2="151.567"/>
			<line style="fill:none;stroke:#353C73;stroke-miterlimit:10;" x1="306.103" y1="151.567" x2="345.194" y2="151.567"/>
		</g>
		<g>
			<rect x="268.268" y="89.487" style="fill:#2A4F9A;" width="21.594" height="14.035"/>
			<rect x="268.268" y="108.201" style="fill:#2A4F9A;" width="21.594" height="14.037"/>
			<rect x="268.268" y="126.915" style="fill:#2A4F9A;" width="21.594" height="14.036"/>
			<rect x="268.268" y="145.63" style="fill:#2A4F9A;" width="21.594" height="14.035"/>
		</g>
		<path style="fill:#353C73;stroke:#353C73;stroke-miterlimit:10;" d="M401.648,71.043c0,0.682-0.554,1.235-1.235,1.235
			c-0.683,0-1.235-0.553-1.235-1.235c0-0.682,0.553-1.234,1.235-1.234C401.095,69.808,401.648,70.361,401.648,71.043z"/>
		<path style="fill:#353C73;stroke:#353C73;stroke-miterlimit:10;" d="M392.65,71.043c0,0.682-0.553,1.235-1.235,1.235
			c-0.682,0-1.235-0.553-1.235-1.235c0-0.682,0.554-1.234,1.235-1.234C392.098,69.808,392.65,70.361,392.65,71.043z"/>
		<path style="fill:#353C73;stroke:#353C73;stroke-miterlimit:10;" d="M383.653,71.043c0,0.682-0.553,1.235-1.235,1.235
			c-0.682,0-1.235-0.553-1.235-1.235c0-0.682,0.554-1.234,1.235-1.234C383.101,69.808,383.653,70.361,383.653,71.043z"/>
	</g>
	<polygon style="fill:#5686C4;" points="408.782,183.361 417.553,204.075 422.844,201.834 414.073,181.121 425.644,180.013 
		399.178,158.045 399.178,190.435 	"/>
	<line style="fill:none;stroke:#353C73;stroke-miterlimit:10;" x1="25" y1="407.667" x2="475" y2="407.667"/>
	<path style="fill:#353C73;" d="M273.386,160.273c-17.329-1.306-23.49-14.503-23.49-14.503
		c-11.553,16.528-23.49,14.503-23.49,14.503s-1.63-27.513,23.49-27.513S273.386,160.273,273.386,160.273z"/>
	<g>
		<rect x="148.503" y="256.951" style="fill:#B7C1DA;" width="21.327" height="23.41"/>
		<path style="fill:none;stroke:#B7C1DA;stroke-width:1.5;stroke-miterlimit:10;" d="M148.503,276.006
			c-4.059,0-7.349-3.291-7.349-7.349c0-4.059,3.29-7.349,7.349-7.349"/>
		<path style="fill:#EF8B7B;" d="M162.249,270.964c-1.504,2.523-4.312,3.622-6.27,2.454c-1.959-1.168-2.328-4.159-0.823-6.684
			c1.504-2.522,4.312-3.622,6.27-2.454C163.385,265.448,163.754,268.44,162.249,270.964z"/>
		
			<line style="fill:none;stroke:#B7C1DA;stroke-width:1.5;stroke-miterlimit:10;" x1="161.426" y1="264.28" x2="155.979" y2="273.418"/>
	</g>
	<g>
		<path style="fill:#B7C1DA;" d="M307.006,277.737c0-1.445-0.783-2.62-1.748-2.62H194.535c-0.966,0-1.748,1.175-1.748,2.62l0,0
			c0,1.449,0.782,2.624,1.748,2.624h110.723C306.223,280.361,307.006,279.186,307.006,277.737L307.006,277.737z"/>
		<g>
			<path style="fill:#C6D8ED;" d="M306.133,221.076c0-1.65-1.35-3-3-3H196.66c-1.65,0-3,1.35-3,3v51.041c0,1.65,1.35,3,3,3h106.473
				c1.65,0,3-1.35,3-3V221.076z"/>
		</g>
		<g>
			<path style="fill:#FFFFFF;" d="M300.703,225.7c0-1.65-1.35-3-3-3H202.09c-1.65,0-3,1.35-3,3v41.793c0,1.65,1.35,3,3,3h95.613
				c1.65,0,3-1.35,3-3V225.7z"/>
		</g>
		<path style="fill:#C6D8ED;" d="M262.773,243.236c0,1.855-1.504,3.36-3.359,3.36H240.38c-1.857,0-3.362-1.505-3.362-3.36l0,0
			c0-1.857,1.505-3.362,3.362-3.362h19.034C261.27,239.874,262.773,241.379,262.773,243.236L262.773,243.236z"/>
	</g>
	<g>
		<path style="fill:#2A4F9A;" d="M377.553,256.599c0-0.55-0.45-1-1-1H336c-0.55,0-1,0.45-1,1v8.78c0,0.55,0.45,1,1,1h40.553
			c0.55,0,1-0.45,1-1V256.599z"/>
	</g>
	<g>
		<path style="fill:#B7C1DA;" d="M380.912,245.401c0-0.55-0.45-1-1-1h-40.553c-0.55,0-1,0.45-1,1v8.78c0,0.55,0.45,1,1,1h40.553
			c0.55,0,1-0.45,1-1V245.401z"/>
	</g>
	<g>
		<path style="fill:#5686C4;" d="M378.953,234.621c0-0.55-0.45-1-1-1H337.4c-0.55,0-1,0.45-1,1v8.78c0,0.55,0.45,1,1,1h40.553
			c0.55,0,1-0.45,1-1V234.621z"/>
	</g>
	<g>
		<rect x="97.324" y="280.361" style="fill:#5686C4;" width="305.145" height="6.265"/>
		<rect x="106.383" y="286.626" style="fill:#2A4F9A;" width="16.119" height="143.706"/>
		<rect x="377.557" y="286.626" style="fill:#2A4F9A;" width="16.119" height="143.706"/>
		<rect x="122.451" y="286.626" style="fill:#C6D8ED;" width="255.098" height="65.311"/>
		<g>
			<rect x="329.029" y="266.333" style="fill:#353C73;" width="53.75" height="13.973"/>
			<rect x="336.4" y="269.668" style="fill:#FFFFFF;" width="28.933" height="7.303"/>
			<line style="fill:none;stroke:#C6D8ED;stroke-miterlimit:10;" x1="333.333" y1="266.333" x2="333.333" y2="280.361"/>
			<line style="fill:none;stroke:#C6D8ED;stroke-miterlimit:10;" x1="368.333" y1="266.728" x2="368.333" y2="280.315"/>
			<path style="fill:#FFFFFF;" d="M378.482,273.319c0,1.068-0.866,1.935-1.935,1.935c-1.068,0-1.935-0.866-1.935-1.935
				c0-1.068,0.866-1.935,1.935-1.935C377.616,271.385,378.482,272.251,378.482,273.319z"/>
		</g>
	</g>
	<g>
		<rect x="63.133" y="91.82" style="fill:#B7C1DA;" width="84.5" height="118.362"/>
		<path style="fill:none;stroke:#353C73;stroke-miterlimit:10;" d="M79.951,103.359c0,2.165-1.755,3.921-3.921,3.921l0,0
			c-2.165,0-3.92-1.755-3.92-3.921V90.281c0-2.166,1.755-3.921,3.92-3.921l0,0c2.165,0,3.921,1.755,3.921,3.921V103.359z"/>
		<g>
			<path style="fill:#EF8B7B;" d="M98.593,106.081l0.099-0.031C98.66,106.06,98.626,106.07,98.593,106.081z"/>
			<path style="fill:#353C73;" d="M105.726,127.142l21.723-4.656c-2.366-9.998-11.344-17.44-22.065-17.44
				c-2.155,0-4.238,0.307-6.213,0.869L105.726,127.142z"/>
			<path style="fill:#EF8B7B;" d="M106.614,127.974l17.664,12.297c2.391-3.593,3.786-7.905,3.786-12.545
				c0-1.458-0.143-2.882-0.406-4.263L106.614,127.974z"/>
			<path style="fill:#FFFFFF;" d="M104.956,128.038l-6.742-21.83c-9.012,3.001-15.512,11.498-15.512,21.518
				c0,12.526,10.154,22.681,22.681,22.681c7.528,0,14.196-3.671,18.322-9.317L104.956,128.038z"/>
		</g>
		<rect x="72.339" y="162.713" style="fill:#5686C4;" width="66.089" height="6.761"/>
		<rect x="72.339" y="194.609" style="fill:#5686C4;" width="66.089" height="6.761"/>
		<rect x="72.339" y="179.121" style="fill:#5686C4;" width="42.479" height="6.761"/>
		<rect x="120.362" y="179.121" style="fill:#5686C4;" width="18.066" height="6.761"/>
	</g>
	<g>
		<g>
			<line style="fill:none;stroke:#353C73;stroke-miterlimit:10;" x1="373.014" y1="175" x2="373.014" y2="178"/>
			
				<line style="fill:none;stroke:#353C73;stroke-miterlimit:10;stroke-dasharray:5.2964,5.2964;" x1="373.014" y1="183.296" x2="373.014" y2="212.427"/>
			<polyline style="fill:none;stroke:#353C73;stroke-miterlimit:10;" points="373.014,215.075 373.014,218.075 370.014,218.075 			
				"/>
			
				<line style="fill:none;stroke:#353C73;stroke-miterlimit:10;stroke-dasharray:7.0527,7.0527;" x1="362.961" y1="218.075" x2="338.276" y2="218.075"/>
			<polyline style="fill:none;stroke:#353C73;stroke-miterlimit:10;" points="334.75,218.075 331.75,218.075 331.75,221.075 			"/>
			<polyline style="fill:none;stroke:#353C73;stroke-miterlimit:10;" points="331.75,228.5 331.75,231.5 328.75,231.5 			"/>
			
				<line style="fill:none;stroke:#353C73;stroke-miterlimit:10;stroke-dasharray:5.1667,5.1667;" x1="323.583" y1="231.5" x2="315.833" y2="231.5"/>
			<line style="fill:none;stroke:#353C73;stroke-miterlimit:10;" x1="313.25" y1="231.5" x2="310.25" y2="231.5"/>
		</g>
	</g>
	<g>
		<path style="fill:#2A4F9A;" d="M234.719,410.56c0,0-12.413,7.788-21.285,9.231c0,0-4.545,1.011-3.895,7.069
			c0.649,6.059,35.609,3.991,35.487-5.626C244.878,409.618,247.349,408.974,234.719,410.56z"/>
		<polygon style="fill:#EF8B7B;" points="245.13,411.457 233.228,411.457 226.372,351.936 250.029,351.936 		"/>
	</g>
	<g>
		<path style="fill:#2A4F9A;" d="M267.639,410.56c0,0,12.413,7.788,21.285,9.231c0,0,4.544,1.011,3.895,7.069
			c-0.65,6.059-35.609,3.991-35.486-5.626C257.479,409.618,255.009,408.974,267.639,410.56z"/>
		<polygon style="fill:#EF8B7B;" points="268.788,411.457 256.887,411.457 250.029,351.936 273.688,351.936 		"/>
	</g>
	<g>
		<g>
			<line style="fill:none;stroke:#353C73;stroke-miterlimit:10;" x1="110.667" y1="216" x2="110.667" y2="219"/>
			
				<line style="fill:none;stroke:#353C73;stroke-miterlimit:10;stroke-dasharray:3.8735,3.8735;" x1="110.667" y1="222.874" x2="110.667" y2="228.684"/>
			<polyline style="fill:none;stroke:#353C73;stroke-miterlimit:10;" points="110.667,230.621 110.667,233.621 113.667,233.621 			
				"/>
			
				<line style="fill:none;stroke:#353C73;stroke-miterlimit:10;stroke-dasharray:5.6987,5.6987;" x1="119.366" y1="233.621" x2="184.901" y2="233.621"/>
			<line style="fill:none;stroke:#353C73;stroke-miterlimit:10;" x1="187.75" y1="233.621" x2="190.75" y2="233.621"/>
		</g>
	</g>
	<g>
		<rect x="226.372" y="30.402" style="fill:#C6D8ED;" width="65.553" height="42.196"/>
		<polyline style="fill:none;stroke:#FFFFFF;stroke-miterlimit:10;" points="291.925,30.402 259.148,51.5 226.372,30.402 		"/>
		<line style="fill:none;stroke:#FFFFFF;stroke-miterlimit:10;" x1="256.036" y1="49.496" x2="226.372" y2="72.598"/>
		<line style="fill:none;stroke:#FFFFFF;stroke-miterlimit:10;" x1="263.057" y1="49.496" x2="291.925" y2="72.598"/>
	</g>
	<g>
		<rect x="146.816" y="64.092" style="fill:#5686C4;" width="49.327" height="68.939"/>
		<rect x="136.218" y="71.29" style="fill:#C6D8ED;" width="49.327" height="68.938"/>
		<g>
			<line style="fill:none;stroke:#353C73;stroke-miterlimit:10;" x1="143.35" y1="81.987" x2="178.216" y2="81.987"/>
			<line style="fill:none;stroke:#353C73;stroke-miterlimit:10;" x1="143.35" y1="93.873" x2="178.216" y2="93.873"/>
			<line style="fill:none;stroke:#353C73;stroke-miterlimit:10;" x1="143.35" y1="105.759" x2="178.216" y2="105.759"/>
			<line style="fill:none;stroke:#353C73;stroke-miterlimit:10;" x1="143.35" y1="117.645" x2="178.216" y2="117.645"/>
			<line style="fill:none;stroke:#353C73;stroke-miterlimit:10;" x1="143.35" y1="129.531" x2="178.216" y2="129.531"/>
		</g>
	</g>
	<g>
		<path style="fill:#5686C4;" d="M57.36,407.667c0,0-31.243-28.433-7.86-39.167c14.25-6.542,16.5,31,16.5,31S61.427,322,84.379,322
			C110.667,322,81,407.667,81,407.667H57.36z"/>
		<line style="fill:none;stroke:#353C73;stroke-miterlimit:10;" x1="84.666" y1="335.334" x2="75.108" y2="407.667"/>
		<line style="fill:none;stroke:#353C73;stroke-miterlimit:10;" x1="50" y1="377.334" x2="64.5" y2="407.667"/>
		<line style="fill:none;stroke:#353C73;stroke-miterlimit:10;" x1="82.632" y1="350.728" x2="78.5" y2="341.5"/>
		<line style="fill:none;stroke:#353C73;stroke-miterlimit:10;" x1="79.271" y1="376.159" x2="85.833" y2="368.5"/>
		<line style="fill:none;stroke:#353C73;stroke-miterlimit:10;" x1="70.666" y1="379.334" x2="76.474" y2="397.334"/>
		<line style="fill:none;stroke:#353C73;stroke-miterlimit:10;" x1="58.525" y1="395.167" x2="50" y2="391"/>
	</g>
	<g>
		<path style="fill:#5686C4;" d="M414.253,407.667c0,0-30.253-83.667-8.753-90.667s21.748,38,18.874,83.5c0,0,6.126-50,21.626-54.5
			s14,13.334-8.5,61.667H414.253z"/>
		<line style="fill:none;stroke:#353C73;stroke-miterlimit:10;" x1="410.5" y1="328" x2="419.551" y2="407.667"/>
		<line style="fill:none;stroke:#353C73;stroke-miterlimit:10;" x1="448.5" y1="358.478" x2="430" y2="407.667"/>
		<line style="fill:none;stroke:#353C73;stroke-miterlimit:10;" x1="420.5" y1="339.167" x2="413.22" y2="351.936"/>
		<line style="fill:none;stroke:#353C73;stroke-miterlimit:10;" x1="407" y1="368.5" x2="416.465" y2="380.505"/>
		<line style="fill:none;stroke:#353C73;stroke-miterlimit:10;" x1="436.333" y1="369.167" x2="439.768" y2="381.697"/>
	</g>
	<g>
		<line style="fill:none;stroke:#353C73;stroke-miterlimit:10;" x1="42.562" y1="424.75" x2="44.437" y2="424.75"/>
		<line style="fill:none;stroke:#353C73;stroke-miterlimit:10;" x1="47" y1="427.25" x2="49.5" y2="427.25"/>
	</g>
	<g>
		<line style="fill:none;stroke:#353C73;stroke-miterlimit:10;" x1="131.5" y1="452.75" x2="134.5" y2="452.75"/>
		<line style="fill:none;stroke:#353C73;stroke-miterlimit:10;" x1="134.5" y1="449" x2="136.625" y2="449"/>
		<line style="fill:none;stroke:#353C73;stroke-miterlimit:10;" x1="138.75" y1="456.75" x2="141.75" y2="456.75"/>
	</g>
	<g>
		<line style="fill:none;stroke:#353C73;stroke-miterlimit:10;" x1="172.75" y1="415.25" x2="175" y2="415.25"/>
		<line style="fill:none;stroke:#353C73;stroke-miterlimit:10;" x1="177.5" y1="418.25" x2="180" y2="418.25"/>
		<line style="fill:none;stroke:#353C73;stroke-miterlimit:10;" x1="181" y1="415.25" x2="183" y2="415.25"/>
	</g>
	<g>
		<line style="fill:none;stroke:#353C73;stroke-miterlimit:10;" x1="347.813" y1="423.75" x2="349.688" y2="423.75"/>
		<line style="fill:none;stroke:#353C73;stroke-miterlimit:10;" x1="352.25" y1="426.75" x2="354.75" y2="426.75"/>
	</g>
	<line style="fill:none;stroke:#353C73;stroke-miterlimit:10;" x1="287.75" y1="463.75" x2="289.25" y2="463.75"/>
	<g>
		<line style="fill:none;stroke:#353C73;stroke-miterlimit:10;" x1="284.164" y1="462.5" x2="285.336" y2="462.5"/>
		<line style="fill:none;stroke:#353C73;stroke-miterlimit:10;" x1="290.75" y1="458" x2="292.882" y2="458"/>
	</g>
	<g>
		<line style="fill:none;stroke:#353C73;stroke-miterlimit:10;" x1="444" y1="423.75" x2="445.25" y2="423.75"/>
		<line style="fill:none;stroke:#353C73;stroke-miterlimit:10;" x1="438" y1="425.75" x2="439.25" y2="425.75"/>
	</g>
	<g>
		<line style="fill:none;stroke:#353C73;stroke-miterlimit:10;" x1="460.667" y1="474.474" x2="462.667" y2="474.474"/>
		<line style="fill:none;stroke:#353C73;stroke-miterlimit:10;" x1="466.167" y1="478.974" x2="467.935" y2="478.974"/>
	</g>
	<g>
		<line style="fill:none;stroke:#353C73;stroke-miterlimit:10;" x1="379" y1="476" x2="381.5" y2="476"/>
		<line style="fill:none;stroke:#353C73;stroke-miterlimit:10;" x1="383" y1="479" x2="384" y2="479"/>
	</g>
	<g>
		<line style="fill:none;stroke:#353C73;stroke-miterlimit:10;" x1="85.147" y1="470.25" x2="82.147" y2="470.25"/>
		<line style="fill:none;stroke:#353C73;stroke-miterlimit:10;" x1="79.75" y1="465.5" x2="77.25" y2="465.5"/>
		<line style="fill:none;stroke:#353C73;stroke-miterlimit:10;" x1="71.589" y1="476" x2="73.089" y2="476"/>
	</g>
	<g>
		<line style="fill:none;stroke:#353C73;stroke-miterlimit:10;" x1="361.75" y1="451.25" x2="363.25" y2="451.25"/>
		<line style="fill:none;stroke:#353C73;stroke-miterlimit:10;" x1="365.118" y1="454.75" x2="367.25" y2="454.75"/>
		<line style="fill:none;stroke:#353C73;stroke-miterlimit:10;" x1="358.25" y1="458" x2="359.5" y2="458"/>
	</g>
	<g>
		<line style="fill:none;stroke:#353C73;stroke-miterlimit:10;" x1="218.5" y1="456.75" x2="220" y2="456.75"/>
		<line style="fill:none;stroke:#353C73;stroke-miterlimit:10;" x1="223.25" y1="460.75" x2="224.25" y2="460.75"/>
		<line style="fill:none;stroke:#353C73;stroke-miterlimit:10;" x1="217.25" y1="461.5" x2="218.5" y2="461.5"/>
		<line style="fill:none;stroke:#353C73;stroke-miterlimit:10;" x1="211.25" y1="463.5" x2="212.5" y2="463.5"/>
	</g>
	<path style="fill:#B7C1DA;" d="M312.557,442.113h25c0,0-1.917-12.959-12.958-12.959
		C313.557,429.154,312.557,442.113,312.557,442.113z"/>
	<path style="fill:#B7C1DA;" d="M34.719,460.75h25.947C60.666,460.75,63,443,50,443c-7.438,0-10.052,8.25-10.052,8.25
		S34.719,452.167,34.719,460.75z"/>
	<g>
		<path style="fill:#5686C4;" d="M417.626,466.866h24.883c0,0,9.768-30.608-3.116-31.221c-12.884-0.612-12.551,22.471-12.551,22.471
			s-0.997-10.389-6.666-10.083C407.842,448.699,417.626,466.866,417.626,466.866z"/>
		<line style="fill:none;stroke:#353C73;stroke-miterlimit:10;" x1="433.061" y1="466.866" x2="436.701" y2="448.699"/>
		<line style="fill:none;stroke:#353C73;stroke-miterlimit:10;" x1="420.509" y1="460.116" x2="423.509" y2="466.866"/>
	</g>
	<g>
		<path style="fill:#5686C4;" d="M132.945,484.185h12.333c0,0,17.334-27.5,5.667-29.583c-11.667-2.083-11.208,19.147-11.208,19.147
			s-0.459-12.23-8.125-11.397C123.945,463.185,132.945,484.185,132.945,484.185z"/>
		<line style="fill:none;stroke:#353C73;stroke-miterlimit:10;" x1="149.611" y1="462.352" x2="141.75" y2="484.185"/>
		<line style="fill:none;stroke:#353C73;stroke-miterlimit:10;" x1="133.611" y1="470.102" x2="135.945" y2="484.185"/>
	</g>
	<g>
		<path style="fill:#5686C4;" d="M365.314,493.06c0,0,3.667-14-6.758-14c-5.667,0-7.218,9-7.218,9s0.642-25.833-9.358-26.25
			s-1.667,31.25-1.667,31.25H365.314z"/>
		<line style="fill:none;stroke:#353C73;stroke-miterlimit:10;" x1="342.981" y1="470.507" x2="346.057" y2="493.06"/>
		<line style="fill:none;stroke:#353C73;stroke-miterlimit:10;" x1="359.981" y1="484.06" x2="358.557" y2="493.06"/>
	</g>
	<path style="fill:#B7C1DA;" d="M177.806,437.615c0,0-0.667-8.268-8.75-8.268c0,0-2.75-8.667-12.083-8.667
		c-9.334,0-11.292,16.946-11.292,16.946L177.806,437.615z"/>
</g>
<g id="DESIGNED_BY_FREEPIK">
	<g id="XMLID_76_">
		<g id="XMLID_929_">
			<path id="XMLID_958_" style="fill:#353C73;" d="M181.087,472.134c-0.246,0-0.435,0.085-0.567,0.255
				c-0.133,0.17-0.199,0.421-0.199,0.753v2.393c-0.304-0.332-0.617-0.579-0.937-0.739c-0.321-0.159-0.715-0.24-1.182-0.24
				c-0.807,0-1.458,0.283-1.953,0.849c-0.494,0.566-0.742,1.355-0.742,2.369c0,0.479,0.063,0.923,0.188,1.335
				c0.124,0.412,0.307,0.77,0.549,1.074c0.241,0.305,0.526,0.539,0.857,0.703c0.33,0.164,0.689,0.246,1.078,0.246
				c0.293,0,0.563-0.04,0.809-0.122c0.247-0.08,0.477-0.199,0.689-0.356c0.212-0.155,0.426-0.358,0.644-0.607v0.16
				c0,0.297,0.072,0.525,0.217,0.685c0.145,0.16,0.328,0.24,0.549,0.24c0.226,0,0.409-0.077,0.552-0.231
				c0.143-0.154,0.213-0.386,0.213-0.694v-7.147c0-0.305-0.066-0.534-0.199-0.69C181.52,472.212,181.332,472.134,181.087,472.134z
				 M180.021,478.975c-0.141,0.306-0.329,0.533-0.563,0.682c-0.236,0.148-0.496,0.223-0.781,0.223c-0.28,0-0.539-0.078-0.777-0.236
				c-0.237-0.154-0.424-0.387-0.561-0.695c-0.136-0.31-0.205-0.683-0.205-1.122c0-0.415,0.063-0.78,0.193-1.096
				c0.128-0.314,0.31-0.556,0.543-0.724c0.233-0.168,0.499-0.252,0.795-0.252c0.285,0,0.547,0.082,0.787,0.245
				c0.239,0.165,0.429,0.402,0.569,0.713c0.141,0.311,0.21,0.682,0.21,1.113C180.232,478.283,180.163,478.667,180.021,478.975z"/>
			<path id="XMLID_954_" style="fill:#353C73;" d="M188.452,478.054c0.233-0.122,0.35-0.385,0.35-0.793
				c0-0.438-0.113-0.87-0.338-1.294c-0.225-0.423-0.564-0.769-1.019-1.035c-0.453-0.268-0.996-0.399-1.628-0.399
				c-0.487,0-0.93,0.077-1.33,0.233c-0.4,0.156-0.737,0.381-1.01,0.674c-0.272,0.293-0.48,0.643-0.623,1.054
				c-0.143,0.409-0.213,0.853-0.213,1.332c0,1.017,0.289,1.822,0.867,2.415c0.577,0.593,1.387,0.891,2.427,0.891
				c0.456,0,0.858-0.06,1.207-0.178c0.352-0.12,0.641-0.268,0.874-0.448c0.231-0.181,0.404-0.368,0.519-0.565
				c0.115-0.196,0.172-0.366,0.172-0.514c0-0.166-0.052-0.294-0.155-0.386c-0.103-0.09-0.237-0.137-0.403-0.137
				c-0.154,0-0.273,0.036-0.356,0.107c-0.203,0.19-0.366,0.34-0.492,0.451s-0.265,0.216-0.415,0.313
				c-0.15,0.098-0.305,0.167-0.466,0.214c-0.16,0.044-0.337,0.067-0.531,0.067c-0.289,0-0.553-0.07-0.792-0.213
				c-0.239-0.143-0.432-0.355-0.576-0.636c-0.144-0.281-0.219-0.605-0.222-0.974h3.168
				C187.89,478.234,188.219,478.174,188.452,478.054z M184.297,477.315c0.055-0.547,0.212-0.96,0.472-1.238
				c0.259-0.28,0.59-0.418,0.994-0.418c0.423,0,0.764,0.137,1.024,0.411c0.259,0.275,0.409,0.69,0.448,1.245H184.297z"/>
			<path id="XMLID_952_" style="fill:#353C73;" d="M193.878,477.617c-0.319-0.17-0.729-0.316-1.231-0.439
				c-0.424-0.104-0.756-0.19-0.997-0.261c-0.242-0.07-0.434-0.161-0.576-0.27c-0.143-0.108-0.213-0.247-0.213-0.418
				c0-0.186,0.097-0.342,0.291-0.465c0.194-0.126,0.437-0.188,0.73-0.188c0.286,0,0.511,0.047,0.677,0.142
				c0.166,0.096,0.31,0.223,0.433,0.381c0.151,0.189,0.284,0.331,0.401,0.426c0.116,0.096,0.258,0.144,0.424,0.144
				c0.23,0,0.407-0.061,0.532-0.178c0.124-0.119,0.187-0.271,0.187-0.457c0-0.171-0.058-0.345-0.175-0.523
				c-0.116-0.178-0.286-0.34-0.51-0.485c-0.223-0.147-0.502-0.265-0.837-0.351c-0.333-0.088-0.71-0.131-1.13-0.131
				c-0.535,0-0.99,0.085-1.367,0.259c-0.378,0.172-0.665,0.402-0.859,0.69c-0.194,0.289-0.291,0.597-0.291,0.92
				c0,0.364,0.105,0.671,0.315,0.921c0.21,0.249,0.489,0.45,0.839,0.602c0.351,0.152,0.804,0.298,1.362,0.435
				c0.494,0.12,0.849,0.244,1.066,0.375c0.216,0.131,0.323,0.338,0.323,0.622c0,0.187-0.104,0.352-0.311,0.497
				c-0.208,0.144-0.474,0.216-0.798,0.216c-0.4,0-0.715-0.07-0.947-0.213c-0.232-0.144-0.431-0.357-0.597-0.647
				c-0.082-0.149-0.169-0.267-0.261-0.351c-0.091-0.082-0.221-0.124-0.39-0.124c-0.194,0-0.355,0.064-0.481,0.19
				c-0.128,0.126-0.191,0.278-0.191,0.456c0,0.27,0.099,0.537,0.296,0.805c0.198,0.267,0.505,0.489,0.92,0.667
				c0.415,0.179,0.914,0.268,1.495,0.268c0.609,0,1.127-0.082,1.552-0.246c0.425-0.164,0.747-0.405,0.964-0.725
				c0.218-0.318,0.326-0.701,0.326-1.148c0-0.297-0.081-0.56-0.246-0.792C194.438,477.988,194.196,477.787,193.878,477.617z"/>
			<path id="XMLID_950_" style="fill:#353C73;" d="M196.486,474.543c-0.238,0-0.431,0.081-0.579,0.243
				c-0.149,0.162-0.222,0.404-0.222,0.724v4.636c0,0.316,0.073,0.56,0.222,0.73c0.148,0.17,0.341,0.255,0.579,0.255
				c0.238,0,0.433-0.083,0.588-0.249c0.154-0.166,0.232-0.412,0.232-0.736v-4.683c0-0.288-0.078-0.515-0.232-0.677
				C196.919,474.624,196.724,474.543,196.486,474.543z"/>
			<path id="XMLID_949_" style="fill:#353C73;" d="M196.504,472.204c-0.217,0-0.409,0.073-0.573,0.223
				c-0.165,0.149-0.246,0.337-0.246,0.567c0,0.254,0.08,0.449,0.24,0.588c0.16,0.138,0.353,0.208,0.579,0.208
				c0.217,0,0.405-0.071,0.563-0.212c0.158-0.14,0.238-0.335,0.238-0.584c0-0.258-0.081-0.453-0.244-0.588
				C196.9,472.272,196.714,472.204,196.504,472.204z"/>
			<path id="XMLID_945_" style="fill:#353C73;" d="M203.626,474.543c-0.217,0-0.396,0.077-0.535,0.231
				c-0.139,0.154-0.208,0.372-0.208,0.652v0.221c-0.289-0.376-0.602-0.651-0.938-0.829c-0.337-0.175-0.734-0.264-1.193-0.264
				c-0.384,0-0.736,0.068-1.056,0.204c-0.321,0.138-0.604,0.34-0.849,0.609c-0.245,0.268-0.433,0.599-0.566,0.991
				c-0.133,0.392-0.199,0.831-0.199,1.317c0,0.653,0.108,1.228,0.327,1.728c0.217,0.498,0.529,0.886,0.934,1.163
				c0.406,0.276,0.88,0.415,1.422,0.415c0.45,0,0.839-0.091,1.166-0.272c0.327-0.182,0.614-0.447,0.864-0.797
				c-0.008,0.531-0.02,0.916-0.036,1.155c-0.016,0.24-0.07,0.465-0.164,0.674c-0.093,0.209-0.255,0.373-0.486,0.489
				c-0.232,0.117-0.557,0.176-0.977,0.176c-0.205,0-0.387-0.02-0.545-0.057c-0.159-0.038-0.294-0.095-0.406-0.171
				c-0.112-0.078-0.216-0.171-0.309-0.28c-0.093-0.108-0.183-0.217-0.27-0.323c-0.178-0.21-0.386-0.315-0.624-0.315
				c-0.189,0-0.352,0.062-0.486,0.188c-0.135,0.123-0.202,0.284-0.202,0.482c0,0.262,0.119,0.516,0.356,0.764
				c0.238,0.247,0.576,0.448,1.014,0.605c0.439,0.155,0.938,0.233,1.496,0.233c0.609,0,1.119-0.061,1.528-0.184
				c0.409-0.122,0.741-0.311,0.994-0.563c0.253-0.254,0.438-0.574,0.551-0.961c0.115-0.389,0.173-0.852,0.173-1.39v-4.706
				c0-0.384-0.051-0.678-0.155-0.882C204.146,474.646,203.938,474.543,203.626,474.543z M202.6,478.908
				c-0.151,0.291-0.346,0.508-0.586,0.653c-0.239,0.144-0.493,0.217-0.762,0.217c-0.455,0-0.826-0.168-1.113-0.505
				c-0.287-0.336-0.431-0.834-0.431-1.49c0-0.648,0.139-1.149,0.419-1.501c0.279-0.352,0.649-0.528,1.113-0.528
				c0.475,0,0.858,0.184,1.148,0.553c0.291,0.367,0.437,0.882,0.437,1.542C202.825,478.265,202.749,478.617,202.6,478.908z"/>
			<path id="XMLID_944_" style="fill:#353C73;" d="M210.978,475.61c-0.165-0.339-0.418-0.602-0.753-0.788
				c-0.337-0.187-0.718-0.279-1.146-0.279c-0.439,0-0.828,0.088-1.166,0.264c-0.338,0.177-0.65,0.452-0.935,0.828v-0.195
				c0-0.193-0.034-0.358-0.104-0.493c-0.069-0.134-0.162-0.234-0.276-0.302c-0.114-0.068-0.244-0.102-0.387-0.102
				c-0.233,0-0.416,0.076-0.552,0.229c-0.134,0.152-0.201,0.383-0.201,0.691v4.683c0,0.316,0.076,0.56,0.226,0.73
				c0.15,0.17,0.342,0.255,0.576,0.255c0.241,0,0.438-0.082,0.59-0.246c0.152-0.164,0.228-0.411,0.228-0.739v-2.03
				c0-0.66,0.04-1.11,0.119-1.353c0.11-0.3,0.284-0.537,0.522-0.71c0.237-0.172,0.5-0.258,0.788-0.258
				c0.444,0,0.74,0.143,0.888,0.425c0.148,0.282,0.223,0.691,0.223,1.226v2.7c0,0.316,0.074,0.56,0.226,0.73
				c0.15,0.17,0.346,0.255,0.587,0.255c0.238,0,0.431-0.083,0.578-0.249c0.149-0.166,0.224-0.412,0.224-0.736v-3.016
				c0-0.357-0.017-0.648-0.048-0.878C211.155,476.023,211.085,475.809,210.978,475.61z"/>
			<path id="XMLID_939_" style="fill:#353C73;" d="M217.821,478.054c0.233-0.122,0.35-0.385,0.35-0.793
				c0-0.438-0.113-0.87-0.338-1.294c-0.226-0.423-0.565-0.769-1.019-1.035c-0.453-0.268-0.996-0.399-1.628-0.399
				c-0.487,0-0.93,0.077-1.33,0.233c-0.4,0.156-0.736,0.381-1.009,0.674c-0.273,0.293-0.481,0.643-0.624,1.054
				c-0.142,0.409-0.213,0.853-0.213,1.332c0,1.017,0.289,1.822,0.866,2.415c0.578,0.593,1.387,0.891,2.428,0.891
				c0.455,0,0.858-0.06,1.208-0.178c0.351-0.12,0.64-0.268,0.872-0.448c0.232-0.181,0.405-0.368,0.52-0.565
				c0.114-0.196,0.172-0.366,0.172-0.514c0-0.166-0.051-0.294-0.154-0.386c-0.103-0.09-0.238-0.137-0.404-0.137
				c-0.154,0-0.273,0.036-0.356,0.107c-0.201,0.19-0.366,0.34-0.492,0.451c-0.128,0.111-0.266,0.216-0.415,0.313
				c-0.151,0.098-0.307,0.167-0.466,0.214c-0.161,0.044-0.338,0.067-0.532,0.067c-0.288,0-0.553-0.07-0.792-0.213
				c-0.239-0.143-0.431-0.355-0.575-0.636c-0.145-0.281-0.219-0.605-0.223-0.974h3.169
				C217.26,478.234,217.588,478.174,217.821,478.054z M213.666,477.315c0.056-0.547,0.212-0.96,0.471-1.238
				c0.259-0.28,0.591-0.418,0.995-0.418c0.423,0,0.765,0.137,1.024,0.411c0.259,0.275,0.409,0.69,0.448,1.245H213.666z"/>
			<path id="XMLID_936_" style="fill:#353C73;" d="M224.206,472.134c-0.245,0-0.434,0.085-0.567,0.255
				c-0.132,0.17-0.199,0.421-0.199,0.753v2.393c-0.304-0.332-0.617-0.579-0.938-0.739c-0.32-0.159-0.714-0.24-1.181-0.24
				c-0.808,0-1.458,0.283-1.953,0.849c-0.495,0.566-0.741,1.355-0.741,2.369c0,0.479,0.062,0.923,0.187,1.335
				c0.125,0.412,0.308,0.77,0.549,1.074c0.241,0.305,0.527,0.539,0.857,0.703c0.33,0.164,0.689,0.246,1.077,0.246
				c0.293,0,0.563-0.04,0.81-0.122c0.248-0.08,0.476-0.199,0.689-0.356c0.211-0.155,0.426-0.358,0.643-0.607v0.16
				c0,0.297,0.072,0.525,0.217,0.685c0.145,0.16,0.328,0.24,0.549,0.24c0.226,0,0.41-0.077,0.552-0.231
				c0.143-0.154,0.213-0.386,0.213-0.694v-7.147c0-0.305-0.065-0.534-0.199-0.69C224.641,472.212,224.452,472.134,224.206,472.134z
				 M223.141,478.975c-0.14,0.306-0.328,0.533-0.564,0.682c-0.235,0.148-0.495,0.223-0.781,0.223c-0.281,0-0.54-0.078-0.776-0.236
				c-0.238-0.154-0.425-0.387-0.562-0.695c-0.137-0.31-0.205-0.683-0.205-1.122c0-0.415,0.064-0.78,0.193-1.096
				c0.129-0.314,0.31-0.556,0.543-0.724c0.233-0.168,0.499-0.252,0.795-0.252c0.285,0,0.547,0.082,0.787,0.245
				c0.239,0.165,0.43,0.402,0.57,0.713c0.14,0.311,0.21,0.682,0.21,1.113C223.352,478.283,223.281,478.667,223.141,478.975z"/>
			<path id="XMLID_933_" style="fill:#353C73;" d="M233.586,474.938c-0.406-0.255-0.877-0.383-1.415-0.383
				c-0.467,0-0.859,0.084-1.175,0.252c-0.317,0.168-0.627,0.411-0.932,0.728v-2.476c0-0.297-0.068-0.524-0.202-0.686
				c-0.135-0.159-0.326-0.239-0.576-0.239c-0.237,0-0.423,0.084-0.555,0.252c-0.133,0.168-0.198,0.416-0.198,0.744v7.075
				c0,0.305,0.068,0.535,0.205,0.692c0.136,0.156,0.319,0.233,0.549,0.233c0.226,0,0.412-0.077,0.558-0.233
				c0.146-0.157,0.22-0.388,0.22-0.692v-0.16c0.178,0.205,0.322,0.36,0.43,0.463c0.109,0.103,0.241,0.203,0.395,0.3
				c0.154,0.098,0.341,0.175,0.561,0.234c0.22,0.06,0.454,0.089,0.704,0.089c0.407,0,0.781-0.082,1.119-0.246
				c0.338-0.164,0.626-0.397,0.864-0.698c0.237-0.3,0.418-0.655,0.543-1.064c0.124-0.41,0.187-0.859,0.187-1.35
				c0-0.665-0.112-1.241-0.336-1.725C234.305,475.564,233.991,475.193,233.586,474.938z M232.796,479.348
				c-0.295,0.354-0.646,0.531-1.053,0.531c-0.479,0-0.866-0.174-1.161-0.521c-0.295-0.346-0.442-0.841-0.442-1.486
				c0-0.44,0.069-0.818,0.207-1.136c0.138-0.319,0.328-0.563,0.57-0.73c0.24-0.168,0.516-0.252,0.825-0.252
				c0.3,0,0.563,0.084,0.789,0.252c0.225,0.168,0.399,0.406,0.521,0.716c0.123,0.308,0.184,0.677,0.184,1.103
				C233.238,478.486,233.09,478.993,232.796,479.348z"/>
			<path id="XMLID_931_" style="fill:#353C73;" d="M240.529,474.641c-0.112-0.065-0.23-0.098-0.353-0.098
				c-0.171,0-0.302,0.029-0.395,0.09c-0.093,0.058-0.181,0.173-0.264,0.344c-0.083,0.17-0.176,0.406-0.279,0.705l-1.3,3.71
				l-1.371-3.988c-0.091-0.277-0.195-0.489-0.314-0.638c-0.119-0.148-0.295-0.223-0.529-0.223c-0.135,0-0.264,0.035-0.389,0.107
				c-0.124,0.07-0.222,0.166-0.294,0.285c-0.071,0.117-0.107,0.246-0.107,0.385c0,0.131,0.062,0.341,0.184,0.629l1.995,5.022
				l-0.148,0.362c-0.111,0.265-0.208,0.466-0.294,0.601c-0.085,0.139-0.181,0.234-0.288,0.289c-0.107,0.056-0.254,0.084-0.44,0.084
				c-0.075,0-0.163-0.013-0.266-0.036c-0.083-0.024-0.168-0.036-0.256-0.036c-0.221,0-0.388,0.051-0.501,0.151
				c-0.113,0.101-0.169,0.245-0.169,0.431c0,0.272,0.119,0.461,0.356,0.564c0.237,0.103,0.593,0.153,1.068,0.153
				c0.487,0,0.873-0.073,1.161-0.223c0.287-0.147,0.517-0.361,0.691-0.638c0.174-0.277,0.353-0.659,0.535-1.146l2.113-5.531
				c0.051-0.143,0.095-0.283,0.13-0.421c0.037-0.14,0.061-0.246,0.078-0.321c0-0.123-0.032-0.239-0.093-0.35
				C240.729,474.794,240.642,474.706,240.529,474.641z"/>
		</g>
		<g id="XMLID_365_">
			<g id="XMLID_380_">
				<path id="XMLID_928_" style="fill:#353C73;" d="M262.93,472.129c-0.533,0-0.954,0.068-1.26,0.204
					c-0.308,0.137-0.527,0.354-0.654,0.652c-0.13,0.301-0.191,0.702-0.191,1.211v0.487h-0.387c-0.543,0-0.815,0.191-0.815,0.582
					c0,0.174,0.065,0.315,0.196,0.423c0.132,0.111,0.316,0.164,0.559,0.164h0.446v4.294c0,0.318,0.074,0.563,0.228,0.729
					c0.154,0.17,0.344,0.254,0.573,0.254c0.243,0,0.438-0.084,0.589-0.254c0.155-0.167,0.23-0.411,0.23-0.729v-4.294h0.396
					c0.291,0,0.517-0.035,0.681-0.107c0.166-0.071,0.245-0.24,0.245-0.503c0-0.373-0.307-0.559-0.926-0.559h-0.396v-0.387
					c0-0.321,0.043-0.567,0.122-0.739c0.087-0.172,0.273-0.26,0.565-0.26c0.108,0,0.241,0.014,0.39,0.034
					c0.155,0.026,0.268,0.038,0.33,0.038c0.134,0,0.252-0.055,0.348-0.16c0.102-0.107,0.15-0.235,0.15-0.385
					C264.35,472.358,263.879,472.129,262.93,472.129z"/>
				<path id="XMLID_926_" style="fill:#353C73;" d="M268.089,474.795c-0.32-0.171-0.648-0.255-0.99-0.255
					c-0.342,0-0.61,0.084-0.818,0.255c-0.202,0.171-0.4,0.421-0.592,0.755c-0.015-0.334-0.08-0.584-0.199-0.755
					c-0.119-0.171-0.313-0.255-0.583-0.255c-0.525,0-0.788,0.364-0.788,1.093v4.514c0,0.323,0.078,0.568,0.226,0.732
					c0.149,0.169,0.34,0.251,0.579,0.251c0.236,0,0.432-0.081,0.586-0.247c0.15-0.163,0.233-0.41,0.233-0.736v-1.356
					c0-0.486,0.014-0.899,0.045-1.238c0.033-0.337,0.09-0.631,0.17-0.878c0.084-0.243,0.201-0.425,0.353-0.554
					c0.149-0.122,0.345-0.186,0.582-0.186c0.172,0,0.374,0.036,0.602,0.108c0.227,0.073,0.371,0.112,0.434,0.112
					c0.157,0,0.304-0.064,0.44-0.194c0.135-0.126,0.204-0.292,0.204-0.488C268.571,475.192,268.411,474.966,268.089,474.795z"/>
				<path id="XMLID_922_" style="fill:#353C73;" d="M274.176,478.052c0.233-0.122,0.351-0.385,0.351-0.791
					c0-0.44-0.112-0.87-0.339-1.296c-0.222-0.423-0.565-0.77-1.018-1.033c-0.453-0.27-0.997-0.403-1.629-0.403
					c-0.488,0-0.931,0.078-1.329,0.232c-0.402,0.157-0.735,0.381-1.008,0.675c-0.275,0.295-0.484,0.644-0.624,1.055
					c-0.145,0.41-0.218,0.854-0.218,1.333c0,1.017,0.293,1.823,0.87,2.418c0.576,0.593,1.385,0.889,2.429,0.889
					c0.453,0,0.857-0.061,1.207-0.179c0.349-0.117,0.64-0.269,0.874-0.446c0.232-0.182,0.404-0.368,0.522-0.566
					c0.111-0.194,0.167-0.365,0.167-0.512c0-0.167-0.048-0.294-0.152-0.386c-0.104-0.093-0.237-0.139-0.405-0.139
					c-0.152,0-0.271,0.038-0.355,0.108c-0.202,0.189-0.367,0.34-0.493,0.449c-0.128,0.113-0.264,0.218-0.415,0.313
					c-0.15,0.097-0.307,0.17-0.466,0.213c-0.16,0.048-0.336,0.069-0.531,0.069c-0.29,0-0.552-0.07-0.792-0.212
					c-0.24-0.145-0.431-0.357-0.578-0.636c-0.145-0.28-0.216-0.606-0.222-0.974h3.171
					C273.615,478.233,273.942,478.173,274.176,478.052z M270.02,477.313c0.055-0.546,0.213-0.957,0.472-1.236
					c0.26-0.28,0.592-0.418,0.995-0.418c0.426,0,0.764,0.136,1.024,0.412c0.261,0.273,0.407,0.688,0.446,1.242H270.02z"/>
				<path id="XMLID_919_" style="fill:#353C73;" d="M280.916,478.052c0.232-0.122,0.352-0.385,0.352-0.791
					c0-0.44-0.116-0.87-0.341-1.296c-0.222-0.423-0.564-0.77-1.013-1.033c-0.46-0.27-1.003-0.403-1.634-0.403
					c-0.486,0-0.932,0.078-1.33,0.232c-0.4,0.157-0.736,0.381-1.009,0.675c-0.273,0.295-0.48,0.644-0.622,1.055
					c-0.145,0.41-0.218,0.854-0.218,1.333c0,1.017,0.291,1.823,0.868,2.418c0.58,0.593,1.387,0.889,2.43,0.889
					c0.453,0,0.859-0.061,1.208-0.179c0.348-0.117,0.641-0.269,0.872-0.446c0.234-0.182,0.408-0.368,0.518-0.566
					c0.116-0.194,0.171-0.365,0.171-0.512c0-0.167-0.047-0.294-0.15-0.386c-0.104-0.093-0.238-0.139-0.406-0.139
					c-0.151,0-0.27,0.038-0.355,0.108c-0.202,0.189-0.367,0.34-0.492,0.449c-0.127,0.113-0.264,0.218-0.415,0.313
					c-0.152,0.097-0.307,0.17-0.469,0.213c-0.157,0.048-0.335,0.069-0.527,0.069c-0.291,0-0.556-0.07-0.795-0.212
					c-0.238-0.145-0.431-0.357-0.575-0.636c-0.144-0.28-0.218-0.606-0.222-0.974h3.17
					C280.354,478.233,280.682,478.173,280.916,478.052z M276.762,477.313c0.053-0.546,0.211-0.957,0.47-1.236
					c0.261-0.28,0.592-0.418,0.995-0.418c0.425,0,0.764,0.136,1.026,0.412c0.257,0.273,0.407,0.688,0.446,1.242H276.762z"/>
				<path id="XMLID_390_" style="fill:#353C73;" d="M286.927,474.938c-0.42-0.257-0.883-0.387-1.379-0.387
					c-0.415,0-0.79,0.09-1.114,0.268c-0.331,0.176-0.648,0.452-0.952,0.827v-0.194c0-0.297-0.071-0.52-0.218-0.678
					c-0.144-0.155-0.329-0.233-0.56-0.233c-0.233,0-0.419,0.078-0.554,0.228c-0.133,0.154-0.199,0.382-0.199,0.691v6.995
					c0,0.354,0.051,0.62,0.145,0.807c0.102,0.183,0.301,0.274,0.607,0.274c0.517,0,0.777-0.358,0.777-1.068v-2.434
					c0.286,0.358,0.586,0.635,0.9,0.817c0.314,0.187,0.704,0.279,1.166,0.279c0.385,0,0.741-0.076,1.079-0.228
					c0.334-0.152,0.622-0.372,0.868-0.653c0.245-0.283,0.44-0.632,0.58-1.05c0.14-0.418,0.21-0.878,0.21-1.376
					c0-0.677-0.122-1.261-0.366-1.758C287.676,475.571,287.346,475.195,286.927,474.938z M286.45,478.94
					c-0.137,0.313-0.32,0.546-0.552,0.704c-0.229,0.153-0.48,0.233-0.748,0.233c-0.454,0-0.828-0.179-1.133-0.536
					c-0.307-0.358-0.46-0.862-0.46-1.504c0-0.687,0.155-1.204,0.462-1.558c0.307-0.35,0.685-0.527,1.131-0.527
					c0.281,0,0.54,0.083,0.77,0.247c0.229,0.163,0.411,0.398,0.542,0.705c0.13,0.306,0.196,0.674,0.196,1.101
					C286.658,478.248,286.589,478.627,286.45,478.94z"/>
				<path id="XMLID_389_" style="fill:#353C73;" d="M289.9,474.54c-0.238,0-0.428,0.079-0.58,0.244
					c-0.146,0.163-0.222,0.403-0.222,0.722v4.642c0,0.313,0.076,0.555,0.222,0.729c0.152,0.17,0.342,0.254,0.58,0.254
					s0.432-0.082,0.588-0.251c0.154-0.164,0.231-0.409,0.231-0.731v-4.688c0-0.286-0.077-0.512-0.231-0.675
					C290.332,474.619,290.139,474.54,289.9,474.54z"/>
				<path id="XMLID_388_" style="fill:#353C73;" d="M289.917,472.199c-0.217,0-0.407,0.076-0.571,0.223
					c-0.166,0.149-0.247,0.339-0.247,0.568c0,0.253,0.08,0.447,0.242,0.586c0.158,0.138,0.35,0.209,0.576,0.209
					c0.22,0,0.408-0.071,0.566-0.21c0.157-0.14,0.236-0.335,0.236-0.585c0-0.257-0.082-0.454-0.244-0.591
					C290.314,472.267,290.13,472.199,289.917,472.199z"/>
				<path id="XMLID_387_" style="fill:#353C73;" d="M297.258,479.569l-1.662-2.614l0.861-0.788c0.438-0.395,0.658-0.714,0.658-0.951
					c0-0.192-0.068-0.354-0.2-0.483c-0.138-0.128-0.306-0.192-0.509-0.192c-0.169,0-0.313,0.043-0.432,0.13
					c-0.121,0.086-0.29,0.251-0.517,0.486l-1.822,1.913v-3.933c0-0.329-0.074-0.581-0.221-0.751
					c-0.147-0.171-0.344-0.257-0.593-0.257c-0.256,0-0.457,0.093-0.596,0.283c-0.136,0.188-0.207,0.462-0.207,0.82v6.914
					c0,0.323,0.073,0.568,0.215,0.732c0.141,0.169,0.339,0.251,0.588,0.251c0.213,0,0.405-0.084,0.566-0.254
					c0.164-0.167,0.247-0.406,0.247-0.719v-1.29l0.88-0.83l1.428,2.352c0.182,0.278,0.329,0.472,0.435,0.58
					c0.107,0.109,0.261,0.16,0.459,0.16c0.226,0,0.412-0.073,0.553-0.222c0.142-0.15,0.214-0.351,0.214-0.609
					c0-0.089-0.029-0.189-0.082-0.288C297.47,479.909,297.379,479.765,297.258,479.569z"/>
				<path id="XMLID_386_" style="fill:#353C73;" d="M299.45,479.343c-0.251,0-0.459,0.087-0.63,0.262
					c-0.171,0.173-0.257,0.381-0.257,0.622c0,0.287,0.091,0.51,0.269,0.665c0.179,0.159,0.389,0.238,0.633,0.238
					c0.237,0,0.444-0.079,0.624-0.241c0.175-0.157,0.264-0.38,0.264-0.662c0-0.243-0.089-0.454-0.264-0.626
					C299.909,479.43,299.698,479.343,299.45,479.343z"/>
				<path id="XMLID_385_" style="fill:#353C73;" d="M306.835,478.416c-0.166,0-0.308,0.055-0.422,0.156
					c-0.113,0.104-0.219,0.245-0.318,0.427c-0.177,0.31-0.381,0.538-0.616,0.69c-0.23,0.149-0.509,0.225-0.834,0.225
					c-0.24,0-0.463-0.045-0.666-0.141c-0.201-0.094-0.372-0.229-0.516-0.409c-0.144-0.18-0.252-0.398-0.325-0.652
					c-0.075-0.256-0.114-0.537-0.114-0.842c0-0.646,0.147-1.161,0.44-1.533c0.293-0.375,0.682-0.561,1.158-0.561
					c0.333,0,0.606,0.075,0.82,0.227c0.219,0.147,0.425,0.376,0.623,0.674c0.108,0.158,0.209,0.27,0.299,0.339
					c0.09,0.069,0.201,0.104,0.338,0.104c0.202,0,0.377-0.068,0.524-0.203c0.143-0.135,0.214-0.3,0.214-0.491
					c0-0.192-0.062-0.397-0.192-0.617c-0.127-0.218-0.315-0.424-0.556-0.62c-0.245-0.192-0.54-0.352-0.891-0.474
					c-0.353-0.124-0.736-0.185-1.156-0.185c-0.674,0-1.26,0.139-1.747,0.419c-0.485,0.278-0.858,0.673-1.113,1.183
					c-0.259,0.511-0.387,1.098-0.387,1.765c0,0.982,0.281,1.765,0.841,2.35c0.563,0.582,1.345,0.876,2.349,0.876
					c0.469,0,0.894-0.065,1.269-0.191c0.377-0.126,0.688-0.295,0.935-0.503c0.248-0.207,0.434-0.425,0.553-0.655
					c0.122-0.23,0.183-0.446,0.183-0.647c0-0.169-0.066-0.331-0.198-0.481C307.198,478.493,307.033,478.416,306.835,478.416z"/>
				<path id="XMLID_382_" style="fill:#353C73;" d="M313.646,475.453c-0.288-0.291-0.628-0.518-1.026-0.675
					c-0.4-0.16-0.847-0.238-1.336-0.238c-0.482,0-0.924,0.078-1.326,0.233c-0.398,0.158-0.737,0.38-1.02,0.669
					c-0.281,0.288-0.498,0.637-0.648,1.045c-0.146,0.408-0.225,0.857-0.225,1.349c0,0.485,0.076,0.93,0.22,1.332
					c0.151,0.401,0.369,0.75,0.657,1.048c0.284,0.292,0.626,0.521,1.016,0.676c0.393,0.159,0.835,0.239,1.326,0.239
					c0.492,0,0.937-0.08,1.336-0.234c0.394-0.157,0.735-0.382,1.02-0.675c0.286-0.291,0.502-0.642,0.656-1.05
					c0.145-0.408,0.222-0.854,0.222-1.336c0-0.488-0.075-0.932-0.221-1.339C314.148,476.096,313.933,475.749,313.646,475.453z
					 M312.455,479.368c-0.29,0.373-0.682,0.558-1.171,0.558c-0.324,0-0.604-0.086-0.846-0.253c-0.24-0.168-0.424-0.409-0.554-0.729
					c-0.129-0.316-0.193-0.685-0.193-1.108c0-0.428,0.066-0.803,0.197-1.124c0.13-0.321,0.314-0.564,0.556-0.728
					c0.242-0.163,0.522-0.245,0.84-0.245c0.489,0,0.881,0.182,1.171,0.555c0.289,0.367,0.436,0.881,0.436,1.542
					C312.891,478.486,312.744,478.999,312.455,479.368z"/>
				<path id="XMLID_381_" style="fill:#353C73;" d="M323.569,474.814c-0.32-0.173-0.705-0.263-1.146-0.263
					c-0.38,0-0.726,0.081-1.038,0.241c-0.314,0.161-0.607,0.408-0.882,0.738c-0.191-0.326-0.431-0.572-0.725-0.735
					c-0.292-0.162-0.642-0.244-1.048-0.244c-0.395,0-0.748,0.079-1.07,0.241c-0.319,0.156-0.62,0.403-0.903,0.738v-0.153
					c0-0.261-0.073-0.466-0.221-0.616c-0.15-0.145-0.335-0.221-0.558-0.221c-0.226,0-0.412,0.078-0.556,0.238
					c-0.14,0.157-0.21,0.389-0.21,0.694v4.636c0,0.337,0.078,0.592,0.235,0.765c0.156,0.171,0.358,0.258,0.604,0.258
					c0.248,0,0.447-0.087,0.603-0.258c0.149-0.173,0.227-0.428,0.227-0.765v-2.189c0-0.683,0.086-1.206,0.253-1.566
					c0.169-0.369,0.517-0.55,1.048-0.55c0.264,0,0.459,0.071,0.582,0.22c0.121,0.142,0.197,0.33,0.226,0.552
					c0.027,0.226,0.04,0.544,0.04,0.952v2.581c0,0.342,0.078,0.594,0.232,0.768c0.148,0.17,0.35,0.255,0.595,0.255
					c0.254,0,0.454-0.085,0.61-0.255c0.156-0.174,0.23-0.426,0.23-0.768v-2.153c0-0.694,0.063-1.178,0.178-1.452
					c0.109-0.209,0.259-0.383,0.451-0.508c0.191-0.125,0.395-0.191,0.608-0.191c0.264,0,0.463,0.071,0.596,0.215
					c0.128,0.142,0.209,0.318,0.238,0.528c0.029,0.21,0.044,0.486,0.044,0.837v2.725c0,0.337,0.078,0.592,0.234,0.765
					c0.157,0.171,0.356,0.258,0.604,0.258c0.252,0,0.458-0.085,0.611-0.255c0.154-0.174,0.229-0.426,0.229-0.768v-3.163
					c0-0.629-0.068-1.091-0.206-1.386C324.128,475.237,323.889,474.987,323.569,474.814z"/>
			</g>
			<g id="XMLID_366_">
				<path id="XMLID_379_" style="fill:#353C73;" d="M245.273,477.443c-0.001-0.003-0.001-0.006-0.001-0.011
					C245.272,477.438,245.272,477.44,245.273,477.443z"/>
				<path id="XMLID_378_" style="fill:#353C73;" d="M245.355,477.961c0.001,0,0.001,0,0.001,0c-0.03-0.146-0.055-0.294-0.073-0.438
					C245.301,477.669,245.326,477.816,245.355,477.961z"/>
				<path id="XMLID_377_" style="fill:#353C73;" d="M245.891,479.466c-0.003-0.007-0.006-0.014-0.01-0.021
					C245.885,479.452,245.888,479.459,245.891,479.466z"/>
				<path id="XMLID_376_" style="fill:#353C73;" d="M245.84,479.365c-0.014-0.027-0.027-0.056-0.04-0.083
					C245.812,479.311,245.826,479.338,245.84,479.365z"/>
				<path id="XMLID_375_" style="fill:#353C73;" d="M245.505,478.541c0.08,0.25,0.175,0.492,0.286,0.724
					c-0.113-0.236-0.206-0.478-0.284-0.724H245.505z"/>
				<path id="XMLID_374_" style="fill:#353C73;" d="M250.736,470.682l-0.076-0.26c0.299-0.063,0.523-0.329,0.523-0.647
					c0-0.363-0.296-0.659-0.66-0.659c-0.365,0-0.66,0.296-0.66,0.659c0,0.317,0.225,0.584,0.522,0.647l0.084,0.289
					c-1.021,0.141-1.834,0.539-1.834,0.539l0.144,0.44c0.617-0.206,1.153-0.331,1.64-0.383c0.476-0.051,0.833-0.073,1.126-0.073
					c0.313,0,0.545,0.025,0.81,0.069l0.075-0.476C252.43,470.828,251.697,470.603,250.736,470.682z"/>
				<path id="XMLID_373_" style="fill:#353C73;" d="M245.453,473.189c-0.017,0.023-0.497,0.465-0.876,1.279
					c-0.016-0.025-0.035-0.051-0.056-0.074c-0.114-0.124-0.272-0.188-0.474-0.184c-0.003,0-0.006,0-0.01,0
					c-0.124,0-0.21-0.042-0.266-0.093c0.056-0.07,0.089-0.16,0.089-0.258c0-0.23-0.188-0.419-0.419-0.419
					c-0.23,0-0.417,0.189-0.417,0.419c0,0.231,0.188,0.417,0.417,0.417c0.037,0,0.071-0.005,0.105-0.012
					c0.102,0.113,0.266,0.214,0.504,0.209c0.124-0.002,0.214,0.03,0.273,0.097c0.07,0.075,0.093,0.185,0.1,0.267
					c-0.001,0.002-0.001,0.004-0.002,0.004c-0.272,0.743-0.194,1.668-0.194,1.668l0.661,0.025c0.014-0.336,0.061-0.925,0.232-1.393
					c0.329-0.906,0.741-1.472,0.757-1.496l0.004-0.005c0.024-0.031,0.047-0.06,0.071-0.089l-0.196-0.142L245.453,473.189z"/>
				<path id="XMLID_372_" style="fill:#353C73;" d="M257.294,471.787c-0.23,0-0.419,0.186-0.419,0.417
					c0,0.037,0.006,0.071,0.016,0.104c-0.115,0.104-0.215,0.267-0.211,0.506c0.002,0.123-0.03,0.213-0.097,0.273
					c-0.053,0.047-0.119,0.071-0.185,0.087c-0.492-0.689-1.098-1.109-1.098-1.109l-0.474,0.509c0.358,0.326,0.725,0.734,1.08,1.244
					c0.246,0.352,0.499,0.806,0.71,1.258l0.64-0.304c0,0-0.292-0.722-0.703-1.369c0.071-0.025,0.143-0.063,0.206-0.12
					c0.126-0.113,0.188-0.272,0.184-0.474c-0.001-0.13,0.041-0.218,0.093-0.275c0.071,0.054,0.16,0.089,0.258,0.089
					c0.232,0,0.418-0.188,0.418-0.419C257.712,471.974,257.525,471.787,257.294,471.787z"/>
				<path id="XMLID_371_" style="fill:#353C73;" d="M255.633,477.537c-0.88,0.429-2.33,0.996-4.236,1.262
					c-0.749,0.104-1.475,0.143-2.143,0.143c-0.869,0-1.638-0.064-2.227-0.14c-0.672-0.084-1.198-0.188-1.52-0.261
					c0.078,0.245,0.171,0.487,0.284,0.724c0.002,0.006,0.005,0.013,0.008,0.018c0.013,0.027,0.027,0.056,0.04,0.083
					c0.014,0.027,0.027,0.055,0.041,0.079c0.004,0.008,0.007,0.015,0.01,0.021c0.19,0.357,0.417,0.684,0.676,0.968
					c0.899,0.984,1.816,1.139,1.825,1.141l0.015,0.002l0.013,0.005c0.009,0.003,0.821,0.265,2.057,0.265
					c1.215,0,2.409-0.244,3.545-0.729c0.842-0.431,1.639-1.085,2.033-1.668c0.306-0.452,0.526-0.934,0.656-1.434
					c0.069-0.266,0.124-0.692,0.092-1.141C256.555,477.042,256.163,477.279,255.633,477.537z"/>
				<path id="XMLID_367_" style="fill:#353C73;" d="M252.322,471.655c-0.265-0.044-0.477-0.068-0.777-0.068
					c-0.279,0-0.626,0.022-1.088,0.07c-0.465,0.049-0.982,0.171-1.583,0.373c-0.842,0.282-1.604,0.725-2.204,1.28l-0.02,0.019
					c-0.089,0.081-0.275,0.254-0.488,0.525c-0.025,0.037-0.408,0.578-0.709,1.408c-0.226,0.621-0.216,1.526-0.216,1.537v0.001
					c0,0.212,0.013,0.423,0.036,0.632c0,0.005,0,0.008,0.001,0.011c0.003,0.027,0.007,0.053,0.01,0.08
					c0.019,0.144,0.043,0.291,0.074,0.438c0.438,0.112,3.048,0.721,5.967,0.314c1.829-0.254,3.218-0.795,4.061-1.204
					c0.701-0.34,1.151-0.647,1.325-0.773c-0.173-0.643-0.651-1.65-1.089-2.278C254.367,472.228,253.016,471.77,252.322,471.655z
					 M248.679,476.914c-0.972,0-1.759-0.787-1.759-1.76c0-0.972,0.788-1.76,1.759-1.76c0.973,0,1.761,0.788,1.761,1.76
					C250.439,476.127,249.651,476.914,248.679,476.914z M253.828,475.617c-0.601,0-1.088-0.489-1.088-1.09
					c0-0.603,0.487-1.09,1.088-1.09s1.09,0.487,1.09,1.09C254.918,475.128,254.429,475.617,253.828,475.617z"/>
			</g>
		</g>
	</g>
</g>
</svg>
