<?xml version="1.0" encoding="utf-8"?>
<!-- Generator: Adobe Illustrator 27.5.0, SVG Export Plug-In . SVG Version: 6.00 Build 0)  -->
<svg version="1.1" xmlns="http://www.w3.org/2000/svg" xmlns:xlink="http://www.w3.org/1999/xlink" x="0px" y="0px"
	 viewBox="0 0 500 500" style="enable-background:new 0 0 500 500;" xml:space="preserve">
<g id="background">
	<rect style="fill:#E0F2FF;" width="500" height="500"/>
</g>
<g id="objects">
	<g>
		<g>
			<g>
				<polygon style="fill:#EEF7FF;" points="92.219,430.404 191.714,411.927 198.147,386.624 265.361,397.702 333.687,384.42 
					337.501,410.709 434.972,428.767 318.323,433.127 263.022,456.832 209.148,433.582 				"/>
			</g>
			<g>
				<polygon style="fill:#B9DDFF;" points="113.502,429.117 199.395,412.752 202.681,390.347 265.063,400.186 328.46,388.492 
					329.387,411.693 413.479,427.623 311.199,431.49 262.878,452.454 215.955,431.912 				"/>
			</g>
			<g>
				<path style="fill:#EEF7FF;" d="M247.882,408.398c20.399-1.94,42.485,0.821,50.632,6.185c8.866,5.376-2.262,11.279-26.156,13.163
					c-24.613,1.874-49.975-0.938-55.346-6.259C212.361,416.178,226.764,410.326,247.882,408.398z"/>
			</g>
			<g>
				<polygon style="fill:#B9DDFF;" points="228.024,420.434 243.786,416.895 241.655,412.061 258.545,414.22 275.897,411.779 
					272.779,416.687 287.837,420.047 267.17,420.893 257.438,425.384 248.57,421.01 				"/>
			</g>
		</g>
	</g>
	<linearGradient id="SVGID_1_" gradientUnits="userSpaceOnUse" x1="173.2363" y1="125.263" x2="41.7361" y2="302.263">
		<stop  offset="0" style="stop-color:#FFFFFF"/>
		<stop  offset="1" style="stop-color:#FFFFFF;stop-opacity:0"/>
	</linearGradient>
	<polygon style="opacity:0.43;fill:url(#SVGID_1_);" points="163.667,44.5 0,177.667 0,380.584 117.667,380.833 182.333,53.667 	"/>
	
		<linearGradient id="SVGID_00000062878411596184079270000002613980029118208190_" gradientUnits="userSpaceOnUse" x1="81.2087" y1="80.7544" x2="140.709" y2="373.7544">
		<stop  offset="0" style="stop-color:#FFFFFF"/>
		<stop  offset="1" style="stop-color:#FFFFFF;stop-opacity:0"/>
	</linearGradient>
	<polygon style="opacity:0.5;fill:url(#SVGID_00000062878411596184079270000002613980029118208190_);" points="87.25,46.875 
		269.59,380.584 14.602,380.584 64.333,47.333 	"/>
	<g>
		<g>
			<path style="fill:#252969;" d="M88.088,34.983c-0.094,2.633-0.356,4.761-0.586,4.753c-0.23-0.008-0.341-2.149-0.247-4.783
				c0.093-2.633,0.356-4.761,0.586-4.753C88.071,30.208,88.182,32.35,88.088,34.983z"/>
			<path style="fill:#252969;" d="M90.838,34.974c-0.094,2.633-0.356,4.761-0.586,4.753c-0.23-0.008-0.341-2.149-0.247-4.783
				c0.093-2.633,0.356-4.761,0.586-4.753C90.821,30.199,90.932,32.341,90.838,34.974z"/>
			<polygon style="fill:#252969;" points="87.841,30.2 90.591,30.191 90.253,39.727 87.503,39.736 			"/>
		</g>
		<path style="fill:#252969;" d="M90.59,41.97l-33.03,5.06c-1.02-6.41-2.04-12.81-3.06-19.22c0.22-1.5,1.21-6.84,5.51-10.33
			c0.31-0.25,0.64-0.5,0.99-0.73c0.9-0.6,1.85-1.07,2.82-1.42c6.27-2.25,13.75,0.4,18.12,4.61c3.4,3.28,4.61,7.19,5.06,9.14
			C88.2,33.38,89.4,37.67,90.59,41.97z"/>
		<path style="fill:#B9DDFF;" d="M68.5,30.77l-1.75,2.85l-2.61-0.85l-3.872-14.354c0.31-0.25,0.64-0.5,0.99-0.73
			c0.9-0.6,1.85-1.07,2.82-1.42L68.5,30.77z"/>
		<ellipse style="fill:#252969;" cx="74.125" cy="44.844" rx="16.75" ry="15.031"/>
		<ellipse style="fill:#5597C9;" cx="74.563" cy="46.531" rx="13.688" ry="12.906"/>
		<ellipse style="fill:#252969;" cx="74.964" cy="47.969" rx="12.411" ry="10.844"/>
		<ellipse style="fill:#F7FAFF;" cx="75.417" cy="48.99" rx="10.482" ry="9.406"/>
		<g>
			<g>
				<path style="fill:#252969;" d="M89.875,32.578l-2-0.03l0.259-16.684c0.034-0.248,0.1-1.116-0.488-1.877
					c-0.458-0.592-1.063-0.812-1.383-0.89l-28.839-5.93C57.41,7.165,56.31,7,55.629,7.782c-0.484,0.556-0.463,1.243-0.445,1.44
					l0.005,0.059L55.187,9.34l-0.625,22.437l-1.999-0.056l0.624-22.383c-0.04-0.548-0.004-1.794,0.935-2.871
					c1.139-1.308,2.846-1.41,3.676-1.266l28.904,5.943c0.61,0.148,1.697,0.544,2.527,1.618c0.998,1.292,0.969,2.699,0.896,3.308
					L89.875,32.578z"/>
			</g>
		</g>
		<g>
			<polygon style="fill:#252969;" points="52.341,24.784 55.091,24.774 54.753,34.31 52.003,34.319 			"/>
			<path style="fill:#5597C9;" d="M52.588,29.566c-0.093,2.633-0.356,4.761-0.586,4.753c-0.23-0.008-0.341-2.149-0.247-4.783
				c0.093-2.633,0.356-4.761,0.586-4.753C52.571,24.792,52.682,26.933,52.588,29.566z"/>
			<path style="fill:#252969;" d="M55.338,29.557c-0.093,2.633-0.356,4.761-0.586,4.753c-0.23-0.008-0.341-2.149-0.247-4.783
				c0.093-2.633,0.356-4.761,0.586-4.753C55.321,24.783,55.432,26.924,55.338,29.557z"/>
		</g>
		<rect x="71.75" style="fill:#252969;" width="1.917" height="9.417"/>
	</g>
	<g>
		
			<ellipse transform="matrix(0.6867 -0.7269 0.7269 0.6867 22.1207 141.9159)" style="fill:#252969;" cx="175.705" cy="45.294" rx="12.683" ry="16.313"/>
		<path style="fill:#252969;" d="M196.637,20.111c6.461,6.103,7.852,15.123,3.107,20.146s-13.829,4.147-20.29-1.956
			c-6.461-6.103-7.852-15.123-3.107-20.146C181.092,13.132,190.176,14.007,196.637,20.111z"/>
		<polygon style="fill:#252969;" points="163.5,34.5 176,18.5 200.965,38.659 188.023,55.965 		"/>
		
			<ellipse transform="matrix(0.6867 -0.7269 0.7269 0.6867 20.6059 141.2761)" style="fill:#5597C9;" cx="174.205" cy="46.732" rx="9.839" ry="12.655"/>
		<path style="fill:#252969;" d="M179.182,41.769c4.558,4.306,5.746,10.45,2.653,13.724c-3.093,3.274-9.294,2.437-13.852-1.868
			c-4.558-4.306-5.746-10.45-2.653-13.724C168.422,36.627,174.624,37.464,179.182,41.769z"/>
		<path style="fill:#F7FAFF;" d="M177.556,43.49c4.275,4.039,5.676,9.499,3.128,12.196c-2.548,2.697-8.079,1.609-12.354-2.429
			c-4.275-4.039-5.675-9.499-3.128-12.196C167.75,38.364,173.281,39.452,177.556,43.49z"/>
		<g>
			<g>
				<path style="fill:#252969;" d="M203.187,27.974l-1.999-0.072c0,0,0.437-12.122,0.562-15.996
					c0.028-0.862-0.168-1.495-0.583-1.881c-0.694-0.645-1.856-0.531-1.868-0.531c-0.249,0.018-20.328,1.319-23.535,1.566
					c-2.378,0.183-2.573,2.074-2.581,2.154l-0.56,14.076l-1.998-0.079l0.562-14.125c0.115-1.313,1.184-3.771,4.422-4.02
					c3.219-0.248,23.31-1.55,23.512-1.563c0.154-0.021,2.033-0.202,3.389,1.042c0.869,0.797,1.285,1.95,1.238,3.426
					C203.624,15.846,203.187,27.974,203.187,27.974z"/>
			</g>
		</g>
		<path style="fill:#252969;" d="M202.031,31.516c0,2.805-0.833,5.078-1.859,5.078c-1.027,0-1.859-2.274-1.859-5.078
			c0-2.805,0.833-5.078,1.859-5.078C201.199,26.438,202.031,28.711,202.031,31.516z"/>
		<rect x="200.172" y="26.438" style="fill:#252969;" width="2.719" height="10.156"/>
		<path style="fill:#B9DDFF;" d="M182.333,39L196.5,21c0.498,0.515,1.028,1.117,1.559,1.812c0.52,0.68,0.954,1.334,1.316,1.938
			c-4.479,6.5-8.958,13-13.438,19.5c-0.378-0.817-0.884-1.758-1.563-2.75C183.681,40.485,182.97,39.657,182.333,39z"/>
		<path style="fill:#5597C9;" d="M204.75,31.516c0,2.805-0.833,5.078-1.859,5.078s-1.859-2.274-1.859-5.078
			c0-2.805,0.832-5.078,1.859-5.078S204.75,28.711,204.75,31.516z"/>
		<rect x="184.813" style="fill:#252969;" width="1.75" height="9.375"/>
	</g>
	
		<linearGradient id="SVGID_00000008145748450168699680000005565759075720417954_" gradientUnits="userSpaceOnUse" x1="445.2872" y1="125.263" x2="313.787" y2="302.263" gradientTransform="matrix(-1 0 0 1 772.0509 0)">
		<stop  offset="0" style="stop-color:#FFFFFF"/>
		<stop  offset="1" style="stop-color:#FFFFFF;stop-opacity:0"/>
	</linearGradient>
	<polygon style="opacity:0.43;fill:url(#SVGID_00000008145748450168699680000005565759075720417954_);" points="336.333,44.5 
		500,177.667 500,380.584 382.333,380.833 317.667,53.667 	"/>
	
		<linearGradient id="SVGID_00000142141532599443738210000018089743095048405435_" gradientUnits="userSpaceOnUse" x1="353.2596" y1="80.7544" x2="412.7599" y2="373.7544" gradientTransform="matrix(-1 0 0 1 772.0509 0)">
		<stop  offset="0" style="stop-color:#FFFFFF"/>
		<stop  offset="1" style="stop-color:#FFFFFF;stop-opacity:0"/>
	</linearGradient>
	<polygon style="opacity:0.5;fill:url(#SVGID_00000142141532599443738210000018089743095048405435_);" points="412.75,46.875 
		230.41,380.584 485.398,380.584 435.667,47.333 	"/>
	<g>
		<g>
			<path style="fill:#252969;" d="M411.912,34.983c0.094,2.633,0.356,4.761,0.586,4.753c0.23-0.008,0.341-2.149,0.247-4.783
				c-0.093-2.633-0.356-4.761-0.586-4.753C411.929,30.208,411.818,32.35,411.912,34.983z"/>
			<path style="fill:#252969;" d="M409.162,34.974c0.094,2.633,0.356,4.761,0.586,4.753c0.23-0.008,0.341-2.149,0.247-4.783
				c-0.093-2.633-0.356-4.761-0.586-4.753C409.179,30.199,409.068,32.341,409.162,34.974z"/>
			<polygon style="fill:#252969;" points="412.159,30.2 409.409,30.191 409.747,39.727 412.497,39.736 			"/>
		</g>
		<path style="fill:#252969;" d="M409.41,41.97l33.03,5.06c1.02-6.41,2.04-12.81,3.06-19.22c-0.22-1.5-1.21-6.84-5.51-10.33
			c-0.31-0.25-0.64-0.5-0.99-0.73c-0.9-0.6-1.85-1.07-2.82-1.42c-6.27-2.25-13.75,0.4-18.12,4.61c-3.4,3.28-4.61,7.19-5.06,9.14
			C411.8,33.38,410.6,37.67,409.41,41.97z"/>
		<path style="fill:#B9DDFF;" d="M431.5,30.77l1.75,2.85l2.61-0.85l3.872-14.354c-0.31-0.25-0.64-0.5-0.99-0.73
			c-0.9-0.6-1.85-1.07-2.82-1.42L431.5,30.77z"/>
		<ellipse style="fill:#252969;" cx="425.875" cy="44.844" rx="16.75" ry="15.031"/>
		<ellipse style="fill:#5597C9;" cx="425.438" cy="46.531" rx="13.688" ry="12.906"/>
		<ellipse style="fill:#252969;" cx="425.036" cy="47.969" rx="12.411" ry="10.844"/>
		<ellipse style="fill:#F7FAFF;" cx="424.583" cy="48.99" rx="10.482" ry="9.406"/>
		<g>
			<g>
				<path style="fill:#252969;" d="M410.125,32.578l2-0.03l-0.259-16.684c-0.034-0.248-0.1-1.116,0.488-1.877
					c0.457-0.592,1.063-0.812,1.383-0.89l28.839-5.93c0.014-0.002,1.114-0.167,1.795,0.615c0.484,0.556,0.463,1.243,0.445,1.44
					l-0.005,0.059l0.002,0.059l0.625,22.437l1.999-0.056l-0.624-22.383c0.04-0.548,0.004-1.794-0.935-2.871
					c-1.139-1.308-2.846-1.41-3.676-1.266l-28.904,5.943c-0.61,0.148-1.697,0.544-2.527,1.618c-0.998,1.292-0.969,2.699-0.895,3.308
					L410.125,32.578z"/>
			</g>
		</g>
		<g>
			<polygon style="fill:#252969;" points="447.659,24.784 444.909,24.774 445.247,34.31 447.997,34.319 			"/>
			<path style="fill:#5597C9;" d="M447.412,29.566c0.094,2.633,0.356,4.761,0.586,4.753c0.23-0.008,0.341-2.149,0.247-4.783
				c-0.093-2.633-0.356-4.761-0.586-4.753C447.429,24.792,447.318,26.933,447.412,29.566z"/>
			<path style="fill:#252969;" d="M444.662,29.557c0.094,2.633,0.356,4.761,0.586,4.753c0.23-0.008,0.341-2.149,0.247-4.783
				c-0.093-2.633-0.356-4.761-0.586-4.753C444.679,24.783,444.568,26.924,444.662,29.557z"/>
		</g>
		<rect x="425.438" style="fill:#252969;" width="2.018" height="9.625"/>
	</g>
	<g>
		
			<ellipse transform="matrix(0.7269 -0.6867 0.6867 0.7269 57.4505 235.065)" style="fill:#252969;" cx="324.295" cy="45.294" rx="16.313" ry="12.683"/>
		<path style="fill:#252969;" d="M303.363,20.111c-6.461,6.103-7.852,15.123-3.107,20.146c4.745,5.023,13.829,4.147,20.29-1.956
			c6.461-6.103,7.852-15.123,3.107-20.146C318.908,13.132,309.824,14.007,303.363,20.111z"/>
		<polygon style="fill:#252969;" points="336.5,34.5 324,18.5 299.035,38.659 311.977,55.965 		"/>
		<path style="fill:#5597C9;" d="M319.039,39.58c-5.081,4.799-6.174,11.892-2.443,15.842c3.731,3.95,10.875,3.261,15.955-1.538
			c5.081-4.799,6.174-11.892,2.443-15.842C331.263,34.092,324.119,34.781,319.039,39.58z"/>
		<path style="fill:#252969;" d="M320.818,41.769c-4.558,4.306-5.746,10.45-2.653,13.724c3.093,3.274,9.294,2.437,13.852-1.868
			c4.558-4.306,5.746-10.45,2.653-13.724S325.376,37.464,320.818,41.769z"/>
		<path style="fill:#F7FAFF;" d="M322.444,43.49c-4.275,4.039-5.675,9.499-3.128,12.196c2.548,2.697,8.079,1.609,12.354-2.429
			c4.275-4.039,5.676-9.499,3.128-12.196C332.25,38.364,326.719,39.452,322.444,43.49z"/>
		<g>
			<g>
				<path style="fill:#252969;" d="M296.813,27.974l1.999-0.072c0,0-0.438-12.122-0.563-15.996
					c-0.028-0.862,0.169-1.495,0.584-1.881c0.694-0.645,1.855-0.531,1.868-0.531c0.249,0.018,20.328,1.319,23.535,1.566
					c2.379,0.183,2.573,2.074,2.581,2.154l0.56,14.076l1.998-0.079l-0.563-14.125c-0.115-1.313-1.184-3.771-4.422-4.02
					c-3.219-0.248-23.31-1.55-23.512-1.563c-0.154-0.021-2.033-0.202-3.389,1.042c-0.869,0.797-1.285,1.95-1.238,3.426
					C296.375,15.846,296.813,27.974,296.813,27.974z"/>
			</g>
		</g>
		<path style="fill:#252969;" d="M297.969,31.516c0,2.805,0.832,5.078,1.859,5.078s1.859-2.273,1.859-5.078
			c0-2.805-0.832-5.078-1.859-5.078S297.969,28.711,297.969,31.516z"/>
		<rect x="297.109" y="26.438" style="fill:#252969;" width="2.719" height="10.156"/>
		<path style="fill:#B9DDFF;" d="M317.667,39L303.5,21c-0.498,0.515-1.028,1.117-1.559,1.812c-0.52,0.68-0.954,1.334-1.316,1.938
			c4.479,6.5,8.958,13,13.438,19.5c0.378-0.817,0.884-1.758,1.563-2.75C316.319,40.485,317.03,39.657,317.667,39z"/>
		<ellipse style="fill:#5597C9;" cx="297.109" cy="31.516" rx="1.859" ry="5.078"/>
		<rect x="311.955" style="fill:#252969;" width="2.107" height="9.438"/>
	</g>
	<g>
		<polygon style="fill:#5597C9;" points="181.83,389.305 194.049,428.498 191.986,429.292 179.371,389.146 		"/>
		<polygon style="fill:#5597C9;" points="184.052,388.67 193.573,428.498 195.794,428.102 185.639,387.638 		"/>
		<polygon style="fill:#5597C9;" points="150.571,377.166 153.665,409.854 152.633,409.854 148.904,376.927 		"/>
		<polygon style="fill:#5597C9;" points="155.014,377.245 155.807,410.012 156.839,409.933 156.521,376.927 		"/>
		<polygon style="fill:#5597C9;" points="100.11,386.528 86.305,424.928 88.289,425.483 102.332,387.242 		"/>
		<polygon style="fill:#5597C9;" points="97.889,385.893 85.75,424.611 88.13,425.801 100.586,386.607 		"/>
		<path style="fill:#252969;" d="M163.851,268.043l9.64,2.321c0.402,0.201,0.631,0.639,0.568,1.082
			c-0.064,0.449-0.416,0.807-0.865,0.882c-3.233-0.793-6.466-1.587-9.699-2.38c-0.028-0.016-0.536-0.313-0.553-0.854
			C162.926,268.613,163.302,268.152,163.851,268.043z"/>
		<rect x="140.812" y="268.982" style="fill:#B9DDFF;" width="9.759" height="8.93"/>
		<polygon style="fill:#B9DDFF;" points="148.301,252.741 144.986,252.741 144.986,271.842 148.527,271.842 		"/>
		<ellipse style="fill:#B9DDFF;" cx="144.986" cy="262.291" rx="6.141" ry="9.551"/>
		<path style="fill:#252969;" d="M181.216,245.422c0,2.333-1.479,4.225-3.302,4.225s-3.303-1.891-3.303-4.225
			c0-2.333,1.479-4.225,3.303-4.225S181.216,243.089,181.216,245.422z"/>
		<ellipse style="fill:#B9DDFF;" cx="155.068" cy="216.276" rx="9.699" ry="15.084"/>
		<ellipse style="fill:#B9DDFF;" cx="134.742" cy="215.295" rx="9.699" ry="15.085"/>
		<polygon style="fill:#B9DDFF;" points="139.979,200.21 134.742,200.21 134.742,230.379 140.336,230.379 		"/>
		<polygon style="fill:#B9DDFF;" points="160.304,201.192 155.068,201.192 155.068,231.361 160.661,231.361 		"/>
		<polygon style="fill:#B9DDFF;" points="135.992,234.604 135.992,213.777 155.152,213.777 155.152,234.425 		"/>
		<ellipse style="fill:#F7FAFF;" cx="139.979" cy="215.295" rx="9.699" ry="15.085"/>
		<ellipse style="fill:#B9DDFF;" cx="140.574" cy="215.473" rx="5.376" ry="8.36"/>
		<path style="fill:#252969;" d="M142.92,215.473c0,1.649-0.859,2.985-1.919,2.985c-1.06,0-1.919-1.337-1.919-2.985
			c0-1.649,0.859-2.985,1.919-2.985C142.06,212.488,142.92,213.824,142.92,215.473z"/>
		<ellipse style="fill:#F7FAFF;" cx="160.304" cy="216.276" rx="9.699" ry="15.084"/>
		<path style="fill:#B9DDFF;" d="M166.275,216.455c0,4.617-2.407,8.36-5.376,8.36c-2.969,0-5.376-3.743-5.376-8.36
			c0-4.617,2.407-8.361,5.376-8.361C163.868,208.094,166.275,211.838,166.275,216.455z"/>
		<path style="fill:#252969;" d="M163.245,216.455c0,1.649-0.859,2.985-1.919,2.985s-1.92-1.336-1.92-2.985
			c0-1.649,0.859-2.985,1.92-2.985S163.245,214.806,163.245,216.455z"/>
		<path style="fill:#F7FAFF;" d="M154.442,262.292c0,5.275-2.749,9.551-6.141,9.551c-3.392,0-6.141-4.276-6.141-9.551
			c0-5.275,2.749-9.551,6.141-9.551C151.692,252.741,154.442,257.017,154.442,262.292z"/>
		<ellipse style="fill:#B9DDFF;" cx="148.678" cy="262.405" rx="3.404" ry="5.293"/>
		<rect x="139.979" y="277.852" style="fill:#F7FAFF;" width="11.306" height="2.559"/>
		<rect x="139.265" y="280.47" style="fill:#B9DDFF;" width="12.853" height="0.774"/>
		<polygon style="fill:#252969;" points="132.164,281.402 132.243,284.021 136.845,284.973 147.714,285.052 159.377,284.338 
			159.377,282.354 155.648,281.244 		"/>
		<polygon style="fill:#252969;" points="136.289,284.1 99.396,386.924 102.729,387.876 139.542,285.052 		"/>
		<polygon style="fill:#252969;" points="129.784,284.973 97.096,386.052 101.142,387.4 132.64,285.607 		"/>
		<polygon style="fill:#252969;" points="140.018,284.497 150.888,377.721 147.556,377.721 136.845,284.973 		"/>
		<polygon style="fill:#252969;" points="155.49,283.783 155.014,377.562 157.711,377.562 158.029,283.783 		"/>
		<polygon style="fill:#252969;" points="149.777,285.845 146.445,286.48 178.657,390.098 181.83,389.305 		"/>
		<polygon style="fill:#252969;" points="158.663,285.845 184.052,388.67 186.908,388.194 161.361,285.052 		"/>
		<path style="fill:#5597C9;" d="M152.653,265.951l11.544,2.559c0.275,0.105,0.439,0.39,0.391,0.677
			c-0.046,0.28-0.283,0.494-0.57,0.513c-3.908-0.932-7.815-1.865-11.722-2.797c-0.22-0.117-0.331-0.365-0.273-0.587
			C152.091,266.059,152.369,265.888,152.653,265.951z"/>
		<polygon style="fill:#F7FAFF;" points="129.784,285.369 131.053,281.839 133.592,281.918 133.592,283.941 132.878,284.06 
			132.084,286.123 		"/>
		<polygon style="fill:#F7FAFF;" points="147.556,288.265 146.088,283.307 148.627,283.148 149.976,287.75 		"/>
		<polygon style="fill:#F7FAFF;" points="161.004,285.369 160.091,282.434 157.473,282.513 157.83,284.179 158.624,284.14 
			159.338,286.203 		"/>
		<ellipse style="fill:#5597C9;" cx="150.749" cy="269.938" rx="2.202" ry="2.618"/>
		<path style="fill:#B9DDFF;" d="M152.951,269.938c0,1.446-0.799,2.618-1.785,2.618s-1.785-1.172-1.785-2.618
			c0-1.446,0.799-2.618,1.785-2.618S152.951,268.492,152.951,269.938z"/>
		<path style="fill:#5597C9;" d="M172.409,244.232l3.511-0.119c0.598,0.258,1.001,0.831,1.033,1.473
			c0.035,0.681-0.35,1.323-0.974,1.621c-1.17,0.02-2.34,0.04-3.511,0.059L172.409,244.232z"/>
		<path style="fill:#B9DDFF;" d="M128.732,235.663v26.956c0,0-0.238,2.083,0.952,2.261c1.19,0.178,12.615,0.536,12.615,0.536
			l0.655-31.3l-12.734,0.238C130.22,234.354,128.732,234.473,128.732,235.663z"/>
		<path style="fill:#5597C9;" d="M141.129,235.544v28.404c0,0-0.159,1.428,1.745,1.428c1.904,0,21.263-1.031,21.263-1.031
			s1.964,0,1.964-1.488c0-1.488,0-27.194,0-27.194s0.298-1.428-1.547-1.428c-1.845,0-21.838,0-21.838,0
			S141.129,234.354,141.129,235.544z"/>
		<polygon style="fill:#252969;" points="148.488,242.982 148.369,251.134 164.197,250.242 167.113,247.861 167.113,242.447 		"/>
		<polygon style="fill:#252969;" points="166.815,243.161 173.301,243.101 173.539,248.516 165.447,248.873 		"/>
		<ellipse style="fill:#5597C9;" cx="132.035" cy="245.303" rx="6.992" ry="7.795"/>
		<path style="fill:#B9DDFF;" d="M136.587,245.065c0,4.009-2.478,7.26-5.534,7.26c-3.056,0-5.534-3.25-5.534-7.26
			s2.478-7.26,5.534-7.26C134.109,237.805,136.587,241.055,136.587,245.065z"/>
		<polygon style="fill:#5597C9;" points="127.483,234.751 133.433,240.146 133.433,250.063 127.245,255.934 		"/>
		<path style="fill:#252969;" d="M110.028,235.147l-0.079,19.121c0,0,0,2.698,1.904,2.777c1.904,0.079,13.408,0.317,13.408,0.317
			s2.221,0.317,2.38-2.301c0.159-2.618,0.079-19.359,0.079-19.359s0.317-2.697-2.698-2.697c-3.015,0-13.17,0-13.17,0
			S110.187,232.926,110.028,235.147z"/>
		<path style="fill:#B9DDFF;" d="M116.48,239.922l-0.046,10.935c0,0,0,1.543,1.095,1.588c1.095,0.045,7.713,0.181,7.713,0.181
			s1.278,0.182,1.369-1.316c0.091-1.497,0.046-11.071,0.046-11.071s0.183-1.543-1.552-1.543s-7.576,0-7.576,0
			S116.572,238.652,116.48,239.922z"/>
	</g>
	<g>
		<polygon style="fill:#5597C9;" points="346.298,330.901 371.519,329.336 371.18,332.333 346.823,334.052 		"/>
		<path style="fill:#5597C9;" d="M378.694,389.203l23.471,19.625c0.516-0.311,0.717-0.687,0.795-0.869
			c0.375-0.872-0.02-2.058-1.028-2.894c-7.015-5.755-14.031-11.511-21.046-17.266L378.694,389.203z"/>
		<polygon style="fill:#5597C9;" points="409.685,312.941 413.524,314.825 409.672,320.704 383.975,307.735 385.09,303.113 		"/>
		<path style="fill:#252969;" d="M317,405.171l69.025-90.749l-6.186-0.295l-66.104,88.732c-0.661,0.899-0.497,2.139,0.288,2.788
			C314.889,406.362,316.298,406.187,317,405.171z"/>
		<path style="fill:#252969;" d="M386.365,403.826l-54.09-90.819l7.492,3.155l50.546,86.212c0.436,1.103,0.144,2.267-0.558,2.759
			C388.841,405.776,387.092,405.377,386.365,403.826z"/>
		<path style="fill:#252969;" d="M326.355,252.89l2.265,49.41l3.189-0.043l-1.777-49.527c-0.269-0.157-1.146-0.624-2.272-0.435
			C327.096,252.406,326.616,252.699,326.355,252.89z"/>
		<path style="fill:#252969;" d="M389.761,254.541l2.057,46.286c0,0-3.433,0.102-3.379-0.531c0.055-0.632-2.579-45.774-2.579-45.774
			L389.761,254.541z"/>
		<polygon style="fill:#252969;" points="388.65,283.322 388.949,286.086 409.914,288.612 414.743,288.949 414.948,285.533 
			391.02,283.318 		"/>
		<polygon style="fill:#5597C9;" points="410.838,288.055 409.775,308.668 407.246,308.45 408.085,287.658 		"/>
		<polygon style="fill:#5597C9;" points="385.016,299.364 385.09,303.113 408.435,314.047 413.621,313.938 413.883,309.978 
			389.391,299.423 		"/>
		<polygon style="fill:#ED2C65;" points="335.392,305.034 386.314,303.696 408.435,314.047 347.654,316.127 		"/>
		<path style="fill:#252969;" d="M341.311,317.65l64.533,99.301c0.666,1.288,2.286,1.705,3.41,0.993
			c1.036-0.656,1.403-2.115,0.728-3.264c-20.755-32.172-41.51-64.345-62.264-96.517L341.311,317.65z"/>
		<path style="fill:#252969;" d="M334.052,426.641l68.992-108.719c0.86-1.318,2.668-1.573,3.79-0.662
			c1.131,0.917,1.246,2.757,0.114,3.866c-22.882,36.289-45.764,72.579-68.646,108.868c-1.155,1.314-3.124,1.316-4.15,0.237
			C333.295,429.33,333.202,427.788,334.052,426.641z"/>
		<polygon style="fill:#5597C9;" points="362.861,383.497 400.346,380.999 400.751,377.689 395.915,375.599 359.873,377.983 
			359.638,380.71 		"/>
		<path style="fill:#5597C9;" d="M359.715,341.536c-0.849,0.176-1.462,0.908-1.481,1.74c-0.018,0.753,0.455,1.454,1.181,1.738
			c10.354-0.327,20.708-0.654,31.063-0.982c0.907-0.253,1.533-1.052,1.54-1.931c0.006-0.722-0.406-1.401-1.062-1.771
			C380.542,340.733,370.128,341.134,359.715,341.536z"/>
		<path style="fill:#5597C9;" d="M321.353,392.934l20.985,24.428c0.649,0.391,1.474,0.305,2.001-0.194
			c0.58-0.549,0.674-1.478,0.194-2.165c-7.292-8.089-14.341-15.923-21.633-24.011c-0.062-0.036-0.684-0.38-1.196-0.113
			C321.152,391.166,320.886,392.082,321.353,392.934z"/>
		<polygon style="fill:#5597C9;" points="326.619,306.108 330.028,311.818 347.211,323.096 351.474,320.757 347.97,316.154 		"/>
		<polygon style="fill:#5597C9;" points="326.093,301.126 326.106,305.586 343.891,316.359 349.795,316.232 349.623,311.758 
			330.897,300.824 		"/>
		<polygon style="fill:#5597C9;" points="341.54,289.16 342.973,310.387 345.818,310.633 345.097,289.467 		"/>
		<path style="fill:#ED2C65;" d="M326.516,255.173l0.854,21.933c0,0,1.603-0.578,4.923-0.292c3.32,0.287,58.539-0.083,58.539-0.083
			l-0.967-20.629l-60.514-1.481C329.351,254.622,326.574,254.501,326.516,255.173z"/>
		<polygon style="fill:#252969;" points="330.969,283.39 348.577,286.98 348.376,290.228 341.998,290.315 329.219,287.061 
			328.749,283.278 		"/>
		<polygon style="fill:#B9DDFF;" points="361.188,259.673 362.613,264.061 367.227,264.061 363.494,266.773 364.92,271.161 
			361.188,268.449 357.455,271.161 358.881,266.773 355.148,264.061 359.762,264.061 		"/>
	</g>
	<g>
		<path style="fill:#F9C5C9;" d="M238.955,389.543c0,0,1.111,9.759,1.825,11.901c0.714,2.142,1.349,1.349,1.666,5.078
			c0.317,3.729,2.063,4.998,1.825,6.902c-0.238,1.904-0.159,6.427-0.159,10.076s-0.317,7.299-5.633,6.427
			c0,0-3.094,0.793-5.157-0.476c0,0-1.507,0.397-1.19-1.27c0.317-1.666,2.777-10.949,2.936-14.599
			c0.159-3.65-1.507-10.314-2.856-18.645L238.955,389.543z"/>
		<path style="fill:#F9C5C9;" d="M286.162,392.557c0,0,3.689,10.473,4.998,14.995c1.309,4.522,2.221,7.141,2.856,9.203
			c0.635,2.063,3.253,5.554,4.126,6.426c0.873,0.873,2.222,0.873,2.38,1.587c0.159,0.714-0.397,1.666-1.666,1.428
			c0,0-3.412,2.856-6.982,0.793c-2.301-0.397-4.443-4.76-4.84-6.427c-0.397-1.666-4.364-3.412-5.871-5.951
			c-1.507-2.539,1.19-5.871,0.317-8.727c-0.873-2.856-4.284-15.392-4.284-15.392L286.162,392.557z"/>
		<path style="fill:#252969;" d="M216.661,282.91c0,0-3.808,8.727-2.222,20.47c1.587,11.742,5.197,23.246,7.339,43.24
			c2.142,19.994,3.57,29.872,4.879,37.131c1.309,7.26,1.19,12.615,1.19,12.615c0.873,0.591,3.176,1.981,6.426,2.023
			c3.558,0.046,6.061-1.551,6.903-2.142c0,0-0.714-36.179-1.071-42.724c-0.357-6.546-0.952-26.658-1.071-30.824
			c-0.119-4.165,0.238-17.375,2.023-17.375c1.785,0,7.974,15.352,9.997,20.946c2.023,5.593,2.38,8.212,7.141,21.66
			c4.76,13.448,17.018,47.723,17.018,47.723s7.379,1.547,12.258-2.261c0,0-5.474-26.777-8.569-36.536
			c-3.094-9.759-4.463-29.778-5.117-33.68c-3.451-20.589-10.235-40.463-10.235-40.463L216.661,282.91z"/>
		<path style="fill:#252969;" d="M233,179.815c-0.337,5.163-0.73,10.411-1.185,15.742c-0.39,4.564-0.814,9.06-1.27,13.488
			l37.29,1.19c-1.18-2.193-2.927-5.778-4.335-10.42c-4.815-15.879,0.034-25.382-6.75-32c-3.779-3.686-8.682-4.054-9.167-4.083
			c-0.877-0.053-5.594-0.253-9.667,3.125C232.153,171.637,232.93,179.228,233,179.815z"/>
		<path style="fill:#F9C5C9;" d="M255.583,181.75c0,0,0.708-0.917,1.583-0.833c0.875,0.083,3.708,4.122-1.875,9.27L255.583,181.75z"
			/>
		<path style="fill:#F9C5C9;" d="M235.561,181.75c0,0-0.708-0.917-1.583-0.833c-0.875,0.083-3.708,4.122,1.875,9.27L235.561,181.75z
			"/>
		<path style="fill:#F9C5C9;" d="M238.558,194.446l-0.397,22.453c0.466,0.67,1.717,2.272,3.967,3.094
			c3.499,1.278,6.575-0.365,7.061-0.635l3.274-16.741l-0.259-8.172H238.558z"/>
		<path style="fill:#ED2C65;" d="M237.13,215.233c1.489,2.971,4.329,4.928,7.438,5.058c3.031,0.126,5.178-1.531,5.772-2.023
			l6.546,71.227c-4.625,0.961-11.758,1.809-20.152,0.238c-4.488-0.84-8.275-2.173-11.266-3.491L237.13,215.233z"/>
		<path style="fill:#3D5AA8;" d="M270.453,210.83c0,0,2.737,0.893,3.154,4.284c0.417,3.392,0.119,9.461,0.298,14.817
			c0,0,0.536,13.805-0.655,18.03c-1.19,4.225-2.321,8.688-9.58,14.579l-11.127-13.27c0,0,9.283-3.511,11.068-5.772
			c1.785-2.261,1.785-19.696,1.785-19.696L270.453,210.83z"/>
		<path style="fill:#3D5AA8;" d="M225.854,208.212c1.545-0.146,3.795-0.541,6.278-1.666c3.052-1.383,5.099-3.253,6.259-4.491
			c-0.341,16.902-0.682,33.804-1.022,50.706l-0.238,5.316c0,0-3.491,5.474-6.189,12.377c-2.697,6.903-4.84,14.202-5.474,15.789
			c-0.635,1.587-2.777,7.458-7.22,8.965c0,0-2.301,1.032-6.665-1.349c0,0,2.856-20.708,5.554-28.483
			c2.698-7.775,4.522-12.218,4.522-12.218L225.854,208.212z"/>
		<path style="fill:#6787C1;" d="M238.439,201.547c0,0-5.712,4.76-9.937,10.235c0,0,0.06,12.972,1.17,18.447
			c1.111,5.474,7.696,22.533,7.696,22.533L238.439,201.547z"/>
		<path style="fill:#3D5AA8;" d="M256.251,206.585c0,0,5.078,1.983,8.648,2.777c3.57,0.793,5.554,1.468,5.554,1.468l-2.777,46.612
			c0,0-0.476,5.951,0.635,12.06c1.111,6.109,6.744,24.199,6.744,24.199s-5.395,6.189-13.091,3.174
			c-7.696-3.015-14.837-39.511-14.837-39.511l-0.555-4.364L256.251,206.585z"/>
		<path style="fill:#6787C1;" d="M252.464,202.618c0,0-2.719,12.774-4.544,23.247c-1.825,10.473-1.507,28.483-1.507,28.483
			s6.664-20.628,9.045-25.865c2.38-5.236,6.189-11.028,5.712-18.327c-1.262-0.866-2.598-1.865-3.967-3.015
			C255.363,205.596,253.792,204.057,252.464,202.618z"/>
		<path style="fill:#F9C5C9;" d="M261.88,260.295l-31.89-4.52c0,0-4.05,1.43-5.32-1.67c-0.27-0.64-0.44-1.7-0.55-2.96l5.22-4.44
			c0.1,0.8,0.17,1.3,0.17,1.3l23.73,2.06L261.88,260.295z"/>
		<path style="fill:#F9C5C9;" d="M231.239,243.795l24.992,0.298c0,0,3.749-4.582,4.979-6.645c1.23-2.063,2.42-4.284,2.42-4.284
			s0.397-0.833,1.27-1.19c0.873-0.357,3.173-1.547,3.173-1.547s1.626-0.159,2.301-0.238c0,0,0.535,0.853-0.456,1.388
			c-0.992,0.536-2.678,1.032-2.678,1.032l-1.111,0.833l4.205,0.119l2.856,1.944l1.111,1.825c0,0-0.119,0.714-1.15,0.278
			c-1.031-0.436-2.221-1.865-2.221-1.865l-2.975-0.238l3.213,1.825l2.38,2.658c0,0,0.476,1.904,0.04,2.023
			c-0.436,0.119-1.349-0.079-1.746-1.388c-1.031-1.15-2.936-2.34-2.936-2.34l2.698,3.332l-0.198,2.222c0,0-1.309,0-1.388-1.269
			c-0.079-1.269-0.674-1.983-0.674-1.983s-1.468-0.992-2.856-0.198l-3.769,5.673c0,0-0.714,3.451-6.486,3.094
			c0,0-5.831,1.785-9.223,2.618c-3.392,0.833-22.076,2.678-22.076,2.678L231.239,243.795z"/>
		<path style="fill:#3D5AA8;" d="M232.77,243.165l-7.78,11.9c0,0-6.58,0.79-8.88-3.73c-2.31-4.52-1.75-12.9-1.12-18.61
			c0.64-5.71,0.38-8.59,0.96-15.39c0.63-7.54,4.19-8.33,9.9-9.12l-0.07,2.89l-0.76,17.6l-0.24,5.68l-0.01,0.35l-0.1,2.13v0.17
			c-0.02,0.36-0.07,1.32-0.11,2.6l-0.04,0.83h0.01c-0.07,2.72-0.1,6.43,0.15,9.15l5.22-4.44c-0.1-0.78-0.23-1.83-0.37-2.98
			C231.38,242.785,232.77,243.165,232.77,243.165z"/>
		<path style="fill:#252969;" d="M238.162,197.065c0,0,2.906,5.104,7.352,4.99c4.445-0.115,7.32-3.948,7.32-3.948v-4.458
			l-14.917-0.292L238.162,197.065z"/>
		<path style="fill:#F9C5C9;" d="M236.606,170.479c0,0-1.648,2.343-1.735,8.329c-0.087,5.987,0.868,13.795,2.169,15.704
			c1.301,1.909,4.251,6.768,8.242,6.594c3.991-0.174,7.548-3.21,9.023-6.768c1.475-3.557,2.343-16.138,1.562-20.389
			c-0.781-4.251-5.9-7.982-11.192-7.982C239.383,165.967,236.606,170.479,236.606,170.479z"/>
		<path style="fill:#252969;" d="M243.557,168.026c-0.639,1.877-1.687,4.333-3.432,6.935c-1.86,2.772-3.874,4.76-5.442,6.089
			c-0.393-1.036-1.469-4.279-0.2-7.966c2.041-5.933,8.274-7.559,8.757-7.676L243.557,168.026z"/>
		<path style="fill:#252969;" d="M243.557,168.026c0.452,1.277,1.147,2.717,2.235,4.122c4.29,5.544,11.275,6.149,12.958,6.25
			c-0.059-1.203-0.413-5.352-3.699-8.825c-4.609-4.872-11.051-4.252-11.812-4.165L243.557,168.026z"/>
		<g>
			<g>
				<path style="fill:#252969;" d="M244.085,180.998c-0.06,0.03-0.244,0.111-0.481,0.07c-0.245-0.042-0.393-0.188-0.439-0.237
					c-0.322-0.155-0.779-0.347-1.348-0.499c-0.332-0.089-0.735-0.172-1.384-0.237c-0.783-0.078-1.982-0.197-3.475,0.042
					c-1.019,0.163-2.256,0.513-2.256,0.513l-0.058,1.233c0,0,0.65,0.239,0.731,0.6c0.082,0.361,0.495,2.388,0.995,3.183
					c0.5,0.795,1.424,1.908,3.026,2.109c1.906,0.239,3.045-0.652,3.833-1.608c0.904-1.097,1.217-3.255,1.217-3.255
					s-0.272-0.331-0.113-0.67c0.198-0.423,1.025-0.364,1.025-0.364l0.362-0.851L244.085,180.998z M241.962,186.798
					c-1.13,0.721-2.573,0.745-3.723,0.092c-1.406-0.798-1.878-2.325-1.821-3.44c0.016-0.314,0.074-1.175,0.709-1.928
					c0.384-0.455,0.85-0.692,1.22-0.859c0.711-0.321,2.484-0.319,3.562,0.15c1.079,0.469,1.671,1.346,1.707,2.652
					C243.64,184.332,243.372,185.899,241.962,186.798z"/>
				<path style="fill:#252969;" d="M245.69,181.026l-0.374,0.85c0,0,1.187-0.023,1.371,0.406c0.147,0.344-0.136,0.666-0.136,0.666
					s0.238,2.167,1.103,3.295c0.754,0.983,1.862,1.913,3.775,1.74c1.609-0.145,2.57-1.226,3.098-2.003
					c0.528-0.777,1.011-2.788,1.105-3.147c0.094-0.358,0.752-0.575,0.752-0.575l-0.015-1.234c0,0-1.224-0.392-2.237-0.59
					c-1.485-0.291-2.687-0.213-3.472-0.162c-0.651,0.042-1.057,0.112-1.392,0.189c-0.574,0.132-1.037,0.308-1.365,0.452
					c-0.047,0.047-0.2,0.188-0.447,0.222c-0.239,0.033-0.419-0.054-0.478-0.087L245.69,181.026z M247.361,183.53
					c0.081-1.304,0.703-2.159,1.798-2.591c1.095-0.431,2.866-0.371,3.566-0.026c0.364,0.18,0.822,0.433,1.19,0.901
					c0.609,0.775,0.636,1.638,0.641,1.952c0.019,1.116-0.506,2.626-1.939,3.375c-1.172,0.613-2.613,0.539-3.718-0.221
					C247.521,185.971,247.307,184.395,247.361,183.53z"/>
			</g>
		</g>
		<path style="fill:#F9C5C9;" d="M224.67,237.035c0.01-0.11,0.01-0.16,0.01-0.16l-0.01-0.01l-2.41-2.34c0,0-0.91-0.67-0.08-1.62
			l2.59,1.83l0.54,0.39l-0.53-0.74l-2.44-3.43c0,0-0.91-1.34,0.24-1.78l0.99,0.95l-0.36-1.63c0,0-0.48-0.99,0.71-1.34l1.1,1.55
			l2.75,3.84c0,0,1.03,0.52,0.95,1.87c-0.04,0.77,0.42,4.63,0.81,7.78c-1.52-0.47-3.36-1.08-5-1.73c0.01-0.29,0.02-0.57,0.03-0.83
			C224.6,238.355,224.65,237.395,224.67,237.035z"/>
		<path style="fill:#231F20;" d="M280.705,412.504l1.107,9.621l0.813,0.406l0.432-5.797c0,0,3.318,2.641,3.63,3.578
			s1.813,6.063,5.688,7.156c3.875,1.094,8.656-0.688,8.656-0.688s0.625-1.625-0.313-2.375s-2.767-1.426-2.767-1.426
			s-3.483,1.051-6.296-0.387s-10.21-13.717-10.21-13.717S280.508,410.789,280.705,412.504z"/>
		<path style="fill:#231F20;" d="M232.988,424.512c0,0,0.324,2.926,3.637,2.926s5.625-2.5,6.063-4.438s0.938-9.125,0.938-9.125
			s0.263-2.26-0.244-3.654c0,0,0.931,0.935,1.087,3.123c0,1.313-0.271,9.634-0.368,11.126c-0.097,1.492-0.507,7.968-7.539,8.405
			c-5.25-1.031-4.431-4.694-4.431-4.694S232.538,425.649,232.988,424.512z"/>
	</g>
	<g>
		
			<text transform="matrix(1 0 0 1 153.6748 150.6738)" style="fill:#ED2C65; font-family:'Montserrat-Bold'; font-size:43.3872px; letter-spacing:3;">TALENT</text>
	</g>
	<g>
		
			<text transform="matrix(1 0 0 1 165.9321 114.4951)" style="fill:#007EE4; font-family:'Nickainley-Normal'; font-size:43.3872px;">Looking for</text>
	</g>
	<path style="fill:#FFFFFF;" d="M145.274,75.716c0,3.971-1.438,5.409-5.409,5.409c3.971,0,5.409,1.438,5.409,5.409
		c0-3.971,1.438-5.409,5.409-5.409C146.712,81.125,145.274,79.687,145.274,75.716z"/>
	<path style="fill:#FFFFFF;" d="M119.469,141.458c0,3.971-1.438,5.409-5.409,5.409c3.971,0,5.409,1.438,5.409,5.409
		c0-3.971,1.438-5.409,5.409-5.409C120.907,146.867,119.469,145.429,119.469,141.458z"/>
	<path style="fill:#FFFFFF;" d="M57.375,257.13c0,3.971-1.438,5.409-5.409,5.409c3.971,0,5.409,1.438,5.409,5.409
		c0-3.971,1.438-5.409,5.409-5.409C58.813,262.539,57.375,261.101,57.375,257.13z"/>
	<path style="fill:#FFFFFF;" d="M446.453,248.091c0,3.971-1.438,5.409-5.409,5.409c3.971,0,5.409,1.438,5.409,5.409
		c0-3.971,1.438-5.409,5.409-5.409C447.891,253.5,446.453,252.062,446.453,248.091z"/>
	<path style="fill:#FFFFFF;" d="M187.189,181.563c0,3.971-1.438,5.409-5.409,5.409c3.971,0,5.409,1.438,5.409,5.409
		c0-3.971,1.438-5.409,5.409-5.409C188.627,186.972,187.189,185.534,187.189,181.563z"/>
	<path style="fill:#FFFFFF;" d="M336.5,75.716c0,3.971-1.438,5.409-5.409,5.409c3.971,0,5.409,1.438,5.409,5.409
		c0-3.971,1.438-5.409,5.409-5.409C337.938,81.125,336.5,79.687,336.5,75.716z"/>
	<path style="fill:#FFFFFF;" d="M383.975,122.008c0,3.971-1.438,5.409-5.409,5.409c3.971,0,5.409,1.438,5.409,5.409
		c0-3.971,1.438-5.409,5.409-5.409C385.412,127.417,383.975,125.979,383.975,122.008z"/>
	<path style="fill:#FFFFFF;" d="M460.398,86.534c0,3.971-1.438,5.409-5.409,5.409c3.971,0,5.409,1.438,5.409,5.409
		c0-3.971,1.438-5.409,5.409-5.409C461.836,91.943,460.398,90.505,460.398,86.534z"/>
	<path style="fill:#FFFFFF;" d="M41.185,91.943c0,3.971-1.438,5.409-5.409,5.409c3.971,0,5.409,1.438,5.409,5.409
		c0-3.971,1.438-5.409,5.409-5.409C42.622,97.352,41.185,95.914,41.185,91.943z"/>
	<path style="fill:#FFFFFF;" d="M75.417,172.989c0,3.971-1.438,5.409-5.409,5.409c3.971,0,5.409,1.438,5.409,5.409
		c0-3.971,1.438-5.409,5.409-5.409C76.854,178.398,75.417,176.96,75.417,172.989z"/>
	<path style="fill:#FFFFFF;" d="M398.749,178.13c0,3.971-1.438,5.409-5.409,5.409c3.971,0,5.409,1.438,5.409,5.409
		c0-3.971,1.438-5.409,5.409-5.409C400.187,183.539,398.749,182.101,398.749,178.13z"/>
	<path style="fill:#FFFFFF;" d="M290.409,178.13c0,3.971-1.438,5.409-5.409,5.409c3.971,0,5.409,1.438,5.409,5.409
		c0-3.971,1.438-5.409,5.409-5.409C291.846,183.539,290.409,182.101,290.409,178.13z"/>
	<path style="fill:#FFFFFF;" d="M265.598,47.578c0,3.971-1.438,5.409-5.409,5.409c3.971,0,5.409,1.438,5.409,5.409
		c0-3.971,1.438-5.409,5.409-5.409C267.036,52.987,265.598,51.549,265.598,47.578z"/>
	<path style="fill:#FFFFFF;" d="M216.992,60.478c0,3.971-1.438,5.409-5.409,5.409c3.971,0,5.409,1.438,5.409,5.409
		c0-3.971,1.438-5.409,5.409-5.409C218.43,65.887,216.992,64.449,216.992,60.478z"/>
</g>
<g id="designed_by_freepik">
	<g>
		<g id="XMLID_319_">
			<g id="XMLID_338_">
				<path id="XMLID_346_" style="fill:#1C1C1B;" d="M260.104,472.169c-0.432,0.443-0.803,0.931-1.108,1.453l-0.465-0.241
					c-0.067-0.298-0.349-0.503-0.659-0.466c-0.331,0.039-0.568,0.339-0.529,0.67c0.039,0.331,0.339,0.568,0.67,0.529
					c0.066-0.008,0.127-0.026,0.184-0.052l0.451,0.234c-0.251,0.554-0.433,1.139-0.539,1.744l0.747,0.132
					c0.23-1.306,0.85-2.507,1.792-3.473L260.104,472.169z"/>
				<path id="XMLID_345_" style="fill:#1C1C1B;" d="M265.592,469.867c-0.171,0-0.341,0.006-0.51,0.017l-0.074-0.626
					c0.188-0.149,0.296-0.389,0.266-0.645c-0.046-0.393-0.402-0.674-0.795-0.628c-0.393,0.046-0.674,0.402-0.628,0.795
					c0.03,0.254,0.189,0.461,0.404,0.564l0.074,0.624c-0.714,0.116-1.403,0.332-2.06,0.646l0.327,0.684
					c0.934-0.447,1.942-0.673,2.995-0.673c0.496,0,0.993,0.053,1.475,0.158l0.161-0.741
					C266.692,469.926,266.142,469.867,265.592,469.867z"/>
				<path id="XMLID_344_" style="fill:#1C1C1B;" d="M272.194,472.414c0.331-0.04,0.566-0.342,0.526-0.672
					c-0.04-0.331-0.341-0.566-0.672-0.526c-0.309,0.038-0.535,0.304-0.53,0.609l-0.416,0.363c-0.418-0.43-0.889-0.813-1.408-1.139
					l-0.404,0.641c1.134,0.715,2.021,1.726,2.563,2.925l0.69-0.313c-0.251-0.554-0.567-1.072-0.942-1.545l0.402-0.351
					C272.065,472.419,272.129,472.422,272.194,472.414z"/>
				<path id="XMLID_343_" style="fill:#1C1C1B;" d="M265.044,480.075c-0.386,0.023-0.775,0.035-1.157,0.035
					c-0.88,0-1.733-0.061-2.478-0.179c-0.39-0.062-0.846-0.155-1.27-0.292c1.046,1.861,3.069,3.125,5.388,3.125
					c2.855,0,5.262-1.916,5.95-4.504c-0.682,0.449-1.505,0.825-2.459,1.123C267.839,479.75,266.463,479.99,265.044,480.075z"/>
				<path id="XMLID_339_" style="fill:#1C1C1B;" d="M265.592,471.383c-3.352,0-6.08,2.666-6.08,5.943
					c0,0.426,0.046,0.849,0.137,1.261c0.673,0.483,2.706,0.89,5.348,0.731c2.879-0.173,5.297-0.957,6.672-2.159
					c-0.006-0.195-0.021-0.39-0.045-0.582C271.244,473.616,268.65,471.383,265.592,471.383z M263.432,477.898
					c-1.02,0-1.85-0.83-1.85-1.85c0-1.02,0.83-1.85,1.85-1.85c1.02,0,1.85,0.83,1.85,1.85
					C265.282,477.068,264.452,477.898,263.432,477.898z M268.17,476.989c-0.75,0-1.36-0.61-1.36-1.36c0-0.75,0.61-1.361,1.36-1.361
					c0.75,0,1.361,0.61,1.361,1.361C269.53,476.379,268.92,476.989,268.17,476.989z"/>
			</g>
			<path id="XMLID_336_" style="fill:#1C1C1B;" d="M281.595,473.25c-0.295-0.116-0.805-0.309-1.382-0.237
				c-0.551,0.069-0.844,0.341-0.844,1.007v0.866h2.228v1.717h-2.228v5.455h-1.932v-5.455h-1.34v-1.717h1.34v-0.888
				c0-1.68,0.896-2.783,2.568-2.783c0.643,0,1.157,0.122,1.59,0.308L281.595,473.25z"/>
			<path id="XMLID_334_" style="fill:#1C1C1B;" d="M286.298,476.582c-0.177-0.03-0.358-0.046-0.526-0.046
				c-0.896,0-1.51,0.548-1.51,1.613v3.908h-1.932v-7.172h1.873v0.785c0.451-0.673,1.14-0.977,2.021-0.977
				c0.414,0,0.848,0.128,1.094,0.337L286.298,476.582z"/>
			<path id="XMLID_331_" style="fill:#1C1C1B;" d="M293.965,478.46c0,0.222-0.015,0.489-0.037,0.651h-5.085
				c0.207,1.036,0.933,1.488,1.843,1.488c0.622,0,1.295-0.252,1.813-0.688l1.133,1.243c-0.814,0.748-1.85,1.088-3.057,1.088
				c-2.198,0-3.723-1.495-3.723-3.753c0-2.258,1.48-3.797,3.627-3.797C292.544,474.693,293.958,476.225,293.965,478.46z
				 M288.851,477.794h3.175c-0.177-0.918-0.733-1.436-1.562-1.436C289.554,476.358,289.021,476.906,288.851,477.794z"/>
			<path id="XMLID_328_" style="fill:#1C1C1B;" d="M301.618,478.46c0,0.222-0.015,0.489-0.037,0.651h-5.085
				c0.207,1.036,0.933,1.488,1.843,1.488c0.622,0,1.295-0.252,1.814-0.688l1.132,1.243c-0.814,0.748-1.85,1.088-3.057,1.088
				c-2.198,0-3.723-1.495-3.723-3.753c0-2.258,1.48-3.797,3.627-3.797C300.197,474.693,301.611,476.225,301.618,478.46z
				 M296.504,477.794h3.175c-0.178-0.918-0.733-1.436-1.562-1.436C297.207,476.358,296.674,476.906,296.504,477.794z"/>
			<path id="XMLID_325_" style="fill:#1C1C1B;" d="M309.964,478.468c0,2.154-1.495,3.775-3.471,3.775
				c-0.962,0-1.643-0.378-2.109-0.933v3.708h-1.924v-10.133h1.887v0.792c0.466-0.585,1.155-0.984,2.139-0.984
				C308.469,474.693,309.964,476.314,309.964,478.468z M304.287,478.468c0,1.132,0.748,1.976,1.843,1.976
				c1.14,0,1.85-0.881,1.85-1.976c0-1.095-0.71-1.976-1.85-1.976C305.035,476.491,304.287,477.335,304.287,478.468z"/>
			<path id="XMLID_322_" style="fill:#1C1C1B;" d="M313.068,472.539c0,0.696-0.54,1.229-1.236,1.229
				c-0.696,0-1.229-0.533-1.229-1.229c0-0.696,0.533-1.243,1.229-1.243C312.527,471.296,313.068,471.843,313.068,472.539z
				 M312.809,482.057h-1.932v-7.172h1.932V482.057z"/>
			<path id="XMLID_320_" style="fill:#1C1C1B;" d="M316.032,477.439l2.701-2.554h2.368l-3.479,3.375l3.501,3.797h-2.376
				l-2.716-2.901v2.901H314.1v-10.658h1.932V477.439z"/>
		</g>
		<g>
			<path style="fill:#1C1C1B;" d="M184.412,481.992v-1.055c-0.527,0.718-1.391,1.23-2.387,1.23c-1.846,0-3.149-1.406-3.149-3.706
				c0-2.256,1.289-3.721,3.149-3.721c0.952,0,1.816,0.469,2.387,1.245v-3.765h1.099v9.77H184.412z M184.412,480.073v-3.208
				c-0.395-0.615-1.245-1.143-2.124-1.143c-1.421,0-2.27,1.172-2.27,2.739c0,1.567,0.85,2.724,2.27,2.724
				C183.168,481.187,184.017,480.689,184.412,480.073z"/>
			<path style="fill:#1C1C1B;" d="M186.932,478.448c0-2.051,1.465-3.706,3.486-3.706c2.139,0,3.398,1.67,3.398,3.794v0.279h-5.727
				c0.088,1.333,1.025,2.446,2.549,2.446c0.805,0,1.626-0.322,2.182-0.893l0.527,0.718c-0.703,0.703-1.655,1.084-2.812,1.084
				C188.44,482.168,186.932,480.659,186.932,478.448z M190.403,475.65c-1.509,0-2.256,1.274-2.314,2.358h4.643
				C192.718,476.953,192.015,475.65,190.403,475.65z"/>
			<path style="fill:#1C1C1B;" d="M194.607,481.055l0.571-0.791c0.469,0.542,1.362,1.011,2.329,1.011c1.084,0,1.67-0.513,1.67-1.216
				c0-1.713-4.38-0.659-4.38-3.281c0-1.098,0.952-2.036,2.636-2.036c1.201,0,2.051,0.454,2.622,1.025l-0.513,0.762
				c-0.424-0.513-1.201-0.894-2.109-0.894c-0.967,0-1.567,0.483-1.567,1.113c0,1.552,4.38,0.527,4.38,3.281
				c0,1.187-0.952,2.138-2.783,2.138C196.306,482.168,195.325,481.816,194.607,481.055z"/>
			<path style="fill:#1C1C1B;" d="M201.477,473.174c0-0.41,0.337-0.747,0.732-0.747c0.41,0,0.747,0.337,0.747,0.747
				c0,0.41-0.337,0.732-0.747,0.732C201.814,473.906,201.477,473.585,201.477,473.174z M201.667,481.992v-7.075h1.099v7.075H201.667
				z"/>
			<path style="fill:#1C1C1B;" d="M204.582,483.809l0.556-0.82c0.586,0.703,1.289,0.967,2.3,0.967c1.172,0,2.27-0.571,2.27-2.124
				v-1.011c-0.513,0.718-1.377,1.26-2.373,1.26c-1.845,0-3.149-1.377-3.149-3.662c0-2.27,1.289-3.676,3.149-3.676
				c0.952,0,1.802,0.469,2.373,1.245v-1.069h1.098v6.87c0,2.344-1.641,3.076-3.369,3.076
				C206.237,484.863,205.417,484.629,204.582,483.809z M209.709,479.956v-3.091c-0.381-0.615-1.23-1.143-2.109-1.143
				c-1.421,0-2.27,1.128-2.27,2.695c0,1.553,0.849,2.695,2.27,2.695C208.478,481.113,209.328,480.572,209.709,479.956z"/>
			<path style="fill:#1C1C1B;" d="M217.413,481.992v-4.629c0-1.245-0.63-1.641-1.582-1.641c-0.865,0-1.685,0.527-2.095,1.099v5.17
				h-1.099v-7.075h1.099v1.025c0.498-0.586,1.464-1.201,2.519-1.201c1.48,0,2.256,0.747,2.256,2.285v4.966H217.413z"/>
			<path style="fill:#1C1C1B;" d="M219.932,478.448c0-2.051,1.465-3.706,3.486-3.706c2.139,0,3.398,1.67,3.398,3.794v0.279h-5.727
				c0.088,1.333,1.025,2.446,2.549,2.446c0.806,0,1.626-0.322,2.183-0.893l0.527,0.718c-0.703,0.703-1.655,1.084-2.812,1.084
				C221.441,482.168,219.932,480.659,219.932,478.448z M223.404,475.65c-1.509,0-2.256,1.274-2.314,2.358h4.643
				C225.718,476.953,225.015,475.65,223.404,475.65z"/>
			<path style="fill:#1C1C1B;" d="M233.35,481.992v-1.055c-0.527,0.718-1.392,1.23-2.388,1.23c-1.846,0-3.149-1.406-3.149-3.706
				c0-2.256,1.289-3.721,3.149-3.721c0.952,0,1.817,0.469,2.388,1.245v-3.765h1.098v9.77H233.35z M233.35,480.073v-3.208
				c-0.396-0.615-1.245-1.143-2.124-1.143c-1.421,0-2.27,1.172-2.27,2.739c0,1.567,0.849,2.724,2.27,2.724
				C232.105,481.187,232.954,480.689,233.35,480.073z"/>
			<path style="fill:#1C1C1B;" d="M239.692,481.992v-9.77h1.098v3.765c0.572-0.776,1.421-1.245,2.388-1.245
				c1.845,0,3.149,1.465,3.149,3.721c0,2.299-1.304,3.706-3.149,3.706c-0.996,0-1.86-0.513-2.388-1.23v1.055H239.692z
				 M242.9,481.187c1.436,0,2.285-1.157,2.285-2.724c0-1.568-0.85-2.739-2.285-2.739c-0.864,0-1.728,0.527-2.109,1.143v3.208
				C241.171,480.689,242.036,481.187,242.9,481.187z"/>
			<path style="fill:#1C1C1B;" d="M247.528,483.765c0.161,0.073,0.425,0.117,0.601,0.117c0.483,0,0.805-0.161,1.055-0.747
				l0.469-1.069l-2.959-7.148h1.187l2.358,5.801l2.344-5.801h1.201l-3.545,8.51c-0.425,1.025-1.143,1.421-2.08,1.435
				c-0.234,0-0.601-0.044-0.805-0.103L247.528,483.765z"/>
		</g>
	</g>
</g>
</svg>
